<svg width="293" height="258" viewBox="0 0 293 258" fill="none" xmlns="http://www.w3.org/2000/svg">
<path d="M250.187 167.034L249.73 170.646L257.705 162.437C258.659 162.525 259.618 162.569 260.577 162.571" stroke="#263238" stroke-linecap="round" stroke-linejoin="round"/>
<path d="M240.196 142.122C239.148 143.514 238.491 145.106 238.28 146.766C237.524 152.767 242.868 158.443 250.943 161.069L250.533 164.294" stroke="#263238" stroke-linecap="round" stroke-linejoin="round"/>
<path d="M243.296 139.134C242.776 139.505 242.283 139.903 241.819 140.326" stroke="#263238" stroke-linecap="round" stroke-linejoin="round"/>
<path d="M273.205 139.134C269.564 136.937 265.355 135.582 260.963 135.192C256.322 134.691 251.614 135.301 247.333 136.957" stroke="#263238" stroke-linecap="round" stroke-linejoin="round"/>
<path d="M266.126 162.086C273.744 160.698 279.516 156.41 280.19 150.847C280.682 146.957 278.614 143.205 274.916 140.326" stroke="#263238" stroke-linecap="round" stroke-linejoin="round"/>
<path d="M247.339 143.123C247.984 143.229 248.646 143.221 249.288 143.101C249.929 142.98 250.538 142.749 251.078 142.421L253.926 144.366C253.726 144.423 253.744 144.052 253.955 144.041C254.166 144.031 254.324 144.201 254.47 144.336C255.139 144.96 256.264 144.98 257.219 144.8C258.174 144.619 259.106 144.284 260.079 144.315C260.657 144.368 261.226 144.484 261.772 144.661C265.687 145.729 269.759 146.265 273.814 146.792" stroke="#263238" stroke-linecap="round" stroke-linejoin="round"/>
<path d="M243.976 146.792C244.562 146.761 247.826 146.792 248.294 146.446L249.091 147.669L249.97 146.921C250.123 147.437 250.275 147.953 250.422 148.438C251.084 148.577 251.008 147.452 251.594 147.117C251.774 147.039 251.981 147.024 252.173 147.075C252.365 147.125 252.529 147.238 252.631 147.39C252.823 147.707 252.916 148.063 252.9 148.422L256.909 148.711L257.688 148.768C257.967 148.394 258.379 148.112 258.86 147.968C258.713 148.783 259.88 149.248 260.806 149.413C265.365 150.232 269.947 150.939 274.553 151.534" stroke="#263238" stroke-linecap="round" stroke-linejoin="round"/>
<path d="M245.757 152.395C246.126 152.622 246.577 152.199 247.028 152.148C247.48 152.096 247.849 152.395 248.247 152.576C248.646 152.757 249.302 152.679 249.326 152.287C249.419 152.803 250.146 152.989 250.738 153.061L266.126 154.965" stroke="#263238" stroke-linecap="round" stroke-linejoin="round"/>
<path d="M39.8481 134.769L46.0129 142.075L44.7764 132.514C46.2503 131.884 47.66 131.143 48.9897 130.3C55.3068 126.275 57.8501 119.8 55.5354 114.583C53.9121 110.94 50.109 108.463 45.3038 107.436" stroke="#263238" stroke-linecap="round" stroke-linejoin="round"/>
<path d="M15.4998 123.241C15.3077 124.896 15.5648 126.568 16.2499 128.118C18.7463 133.742 26.4697 136.58 35.0019 135.6" stroke="#263238" stroke-linecap="round" stroke-linejoin="round"/>
<path d="M16.6661 119.325C16.4043 119.867 16.1793 120.421 15.9922 120.986" stroke="#263238" stroke-linecap="round" stroke-linejoin="round"/>
<path d="M43.153 107.085C38.7686 106.624 34.3228 107.142 30.2258 108.592C25.853 110.048 22.0067 112.515 19.0918 115.734" stroke="#263238" stroke-linecap="round" stroke-linejoin="round"/>
<path d="M22.3501 121.198C23.6107 120.852 24.6642 120.08 25.2801 119.051L28.7961 119.609C28.6437 119.738 28.4679 119.402 28.6496 119.304C28.8313 119.206 29.0598 119.304 29.2356 119.356C30.1615 119.635 31.1635 119.196 31.9136 118.644C32.6637 118.092 33.3083 117.405 34.1932 117.044C34.7337 116.854 35.2984 116.722 35.875 116.652C39.9067 116.002 43.7918 114.805 47.6653 113.613" stroke="#263238" stroke-linecap="round" stroke-linejoin="round"/>
<path d="M21.3071 125.827C21.8287 125.553 24.7176 124.248 24.952 123.763L26.3057 124.521C26.4346 124.181 26.5635 123.835 26.6866 123.489L27.8879 124.65C28.5501 124.506 27.8879 123.541 28.2043 123.014C28.3222 122.872 28.4973 122.773 28.6942 122.74C28.8911 122.706 29.0951 122.74 29.265 122.834C29.5997 123.032 29.8686 123.304 30.0444 123.623L33.7421 122.24L34.4687 121.972C34.5103 121.529 34.7162 121.11 35.0547 120.78C35.3594 121.57 36.6369 121.497 37.5393 121.265C42.0125 120.13 46.4446 118.881 50.8357 117.519" stroke="#263238" stroke-linecap="round" stroke-linejoin="round"/>
<path d="M25.8428 130.058C26.294 130.109 26.4698 129.542 26.839 129.315C27.2082 129.088 27.7004 129.206 28.1458 129.196C28.5911 129.186 29.1361 128.861 28.9486 128.505C29.306 128.923 30.0503 128.788 30.607 128.613L45.257 123.995" stroke="#263238" stroke-linecap="round" stroke-linejoin="round"/>
<path d="M218.537 46.2439H72.4239C69.5791 46.2439 67.2729 48.2746 67.2729 50.7795V166.683C67.2729 169.188 69.5791 171.219 72.4239 171.219H218.537C221.382 171.219 223.688 169.188 223.688 166.683V50.7795C223.688 48.2746 221.382 46.2439 218.537 46.2439Z" fill="white"/>
<path opacity="0.2" d="M223.688 114.702V166.818C223.688 167.984 223.162 169.103 222.226 169.928C221.29 170.753 220.02 171.218 218.695 171.219H72.2715C70.9458 171.219 69.6744 170.755 68.737 169.93C67.7996 169.105 67.2729 167.985 67.2729 166.818V156.498H67.5835V163.453C67.5835 164.114 67.7315 164.769 68.019 165.38C68.3065 165.991 68.7279 166.545 69.259 167.013C69.7902 167.48 70.4208 167.85 71.1146 168.103C71.8085 168.355 72.5521 168.485 73.3029 168.484H214.757C215.508 168.485 216.252 168.355 216.946 168.103C217.64 167.85 218.27 167.48 218.801 167.013C219.332 166.545 219.754 165.991 220.041 165.38C220.329 164.769 220.477 164.114 220.477 163.453V122.431C220.477 121.502 220.058 120.611 219.311 119.954C218.565 119.297 217.553 118.928 216.498 118.928H67.2729V114.702H223.688Z" fill="black"/>
<path d="M218.537 46.2439H72.4239C69.5791 46.2439 67.2729 48.2746 67.2729 50.7795V166.683C67.2729 169.188 69.5791 171.219 72.4239 171.219H218.537C221.382 171.219 223.688 169.188 223.688 166.683V50.7795C223.688 48.2746 221.382 46.2439 218.537 46.2439Z" stroke="#263238" stroke-linecap="round" stroke-linejoin="round"/>
<path d="M210.069 129.542V123.572C210.07 123.281 210.006 122.994 209.88 122.726C209.754 122.457 209.57 122.214 209.337 122.008C209.104 121.803 208.827 121.641 208.522 121.53C208.217 121.419 207.891 121.362 207.561 121.363H83.3997C82.7345 121.363 82.0966 121.596 81.6262 122.01C81.1559 122.424 80.8916 122.986 80.8916 123.572V129.542C80.8916 130.127 80.6274 130.689 80.1571 131.103C79.6867 131.518 79.0487 131.75 78.3836 131.75C77.7168 131.75 77.0774 131.983 76.6059 132.399C76.1345 132.814 75.8696 133.377 75.8696 133.964V145.744C75.8696 148.461 77.0952 151.066 79.2766 152.987C81.458 154.908 84.4167 155.987 87.5017 155.987C87.9975 155.987 88.473 156.16 88.8235 156.469C89.1741 156.778 89.3711 157.196 89.3711 157.633V161.162C89.3711 162.465 89.9588 163.715 91.005 164.636C92.0512 165.557 93.4702 166.075 94.9498 166.075H196.011C197.491 166.075 198.91 165.557 199.956 164.636C201.002 163.715 201.59 162.465 201.59 161.162V157.633C201.59 157.196 201.787 156.778 202.138 156.469C202.488 156.16 202.964 155.987 203.459 155.987C204.987 155.987 206.5 155.722 207.911 155.207C209.322 154.692 210.604 153.938 211.685 152.987C212.765 152.036 213.621 150.907 214.206 149.664C214.791 148.421 215.091 147.089 215.091 145.744V133.964C215.091 133.378 214.827 132.815 214.357 132.4C213.887 131.985 213.249 131.752 212.583 131.75C211.918 131.75 211.279 131.518 210.808 131.104C210.337 130.69 210.071 130.128 210.069 129.542Z" fill="#263238"/>
<path d="M90.402 124.743H86.0598C85.5283 124.743 85.0185 124.929 84.6427 125.26C84.2668 125.591 84.0557 126.04 84.0557 126.508V127.488C84.0557 129.521 85.925 132.101 88.2338 132.101C90.5427 132.101 92.412 129.521 92.412 127.488V126.508C92.4105 126.039 92.198 125.59 91.8212 125.259C91.4445 124.929 90.9341 124.743 90.402 124.743Z" fill="white" stroke="#263238" stroke-linecap="round" stroke-linejoin="round"/>
<path d="M100.792 124.743H96.4499C95.9179 124.743 95.4075 124.929 95.0307 125.259C94.6539 125.59 94.4415 126.039 94.4399 126.508V127.488C94.4399 129.521 96.3093 132.101 98.6181 132.101C100.927 132.101 102.796 129.521 102.796 127.488V126.508C102.796 126.04 102.585 125.591 102.209 125.26C101.833 124.929 101.324 124.743 100.792 124.743Z" fill="white" stroke="#263238" stroke-linecap="round" stroke-linejoin="round"/>
<path d="M111.223 124.743H106.881C106.349 124.743 105.839 124.929 105.463 125.26C105.088 125.591 104.876 126.04 104.876 126.508V127.488C104.876 129.521 106.746 132.101 109.049 132.101C111.352 132.101 113.227 129.521 113.227 127.488V126.508C113.227 126.04 113.016 125.591 112.64 125.26C112.264 124.929 111.754 124.743 111.223 124.743Z" fill="white" stroke="#263238" stroke-linecap="round" stroke-linejoin="round"/>
<path d="M121.63 124.743H117.288C116.756 124.743 116.247 124.929 115.871 125.26C115.495 125.591 115.284 126.04 115.284 126.508V127.488C115.284 129.521 117.153 132.101 119.462 132.101C121.771 132.101 123.634 129.521 123.634 127.488V126.508C123.634 126.276 123.582 126.046 123.482 125.832C123.381 125.618 123.233 125.424 123.047 125.26C122.861 125.096 122.64 124.966 122.397 124.877C122.154 124.789 121.893 124.743 121.63 124.743Z" fill="white" stroke="#263238" stroke-linecap="round" stroke-linejoin="round"/>
<path d="M132.038 124.743H127.696C127.164 124.743 126.654 124.929 126.278 125.26C125.903 125.591 125.691 126.04 125.691 126.508V127.488C125.691 129.521 127.561 132.101 129.87 132.101C132.178 132.101 134.048 129.521 134.048 127.488V126.508C134.046 126.039 133.834 125.59 133.457 125.259C133.08 124.929 132.57 124.743 132.038 124.743Z" fill="white" stroke="#263238" stroke-linecap="round" stroke-linejoin="round"/>
<path d="M142.451 124.743H138.109C137.577 124.743 137.066 124.929 136.689 125.259C136.313 125.59 136.1 126.039 136.099 126.508V127.488C136.099 129.521 137.968 132.101 140.277 132.101C142.586 132.101 144.455 129.521 144.455 127.488V126.508C144.455 126.04 144.244 125.591 143.868 125.26C143.492 124.929 142.982 124.743 142.451 124.743Z" fill="white" stroke="#263238" stroke-linecap="round" stroke-linejoin="round"/>
<path d="M152.858 124.743H148.516C147.984 124.743 147.475 124.929 147.099 125.26C146.723 125.591 146.512 126.04 146.512 126.508V127.488C146.512 129.521 148.381 132.101 150.684 132.101C152.987 132.101 154.862 129.521 154.862 127.488V126.508C154.862 126.04 154.651 125.591 154.275 125.26C153.899 124.929 153.39 124.743 152.858 124.743Z" fill="white" stroke="#263238" stroke-linecap="round" stroke-linejoin="round"/>
<path d="M163.265 124.743H158.923C158.392 124.743 157.882 124.929 157.506 125.26C157.13 125.591 156.919 126.04 156.919 126.508V127.488C156.919 129.521 158.788 132.101 161.097 132.101C163.406 132.101 165.269 129.521 165.269 127.488V126.508C165.269 126.04 165.058 125.591 164.682 125.26C164.307 124.929 163.797 124.743 163.265 124.743Z" fill="white" stroke="#263238" stroke-linecap="round" stroke-linejoin="round"/>
<path d="M173.673 124.743H169.354C169.091 124.743 168.83 124.789 168.587 124.877C168.344 124.966 168.123 125.096 167.937 125.26C167.751 125.424 167.603 125.618 167.503 125.832C167.402 126.047 167.35 126.276 167.35 126.508V127.488C167.35 129.521 169.219 132.101 171.528 132.101C173.837 132.101 175.706 129.521 175.706 127.488V126.508C175.706 126.274 175.652 126.043 175.55 125.827C175.447 125.612 175.296 125.416 175.107 125.252C174.918 125.088 174.694 124.959 174.448 124.871C174.202 124.784 173.938 124.74 173.673 124.743Z" fill="white" stroke="#263238" stroke-linecap="round" stroke-linejoin="round"/>
<path d="M184.086 124.743H179.744C179.212 124.743 178.701 124.929 178.325 125.259C177.948 125.59 177.735 126.039 177.734 126.508V127.488C177.734 129.521 179.603 132.101 181.912 132.101C184.221 132.101 186.09 129.521 186.09 127.488V126.508C186.09 126.04 185.879 125.591 185.503 125.26C185.127 124.929 184.618 124.743 184.086 124.743Z" fill="white" stroke="#263238" stroke-linecap="round" stroke-linejoin="round"/>
<path d="M194.493 124.743H190.151C189.62 124.743 189.11 124.929 188.734 125.26C188.358 125.591 188.147 126.04 188.147 126.508V127.488C188.147 129.521 190.016 132.101 192.319 132.101C194.622 132.101 196.497 129.521 196.497 127.488V126.508C196.497 126.04 196.286 125.591 195.91 125.26C195.535 124.929 195.025 124.743 194.493 124.743Z" fill="white" stroke="#263238" stroke-linecap="round" stroke-linejoin="round"/>
<path d="M204.901 124.743H200.559C200.027 124.743 199.518 124.929 199.142 125.26C198.766 125.591 198.555 126.04 198.555 126.508V127.488C198.555 129.516 200.412 132.096 202.756 132.096C205.1 132.096 206.929 129.516 206.929 127.483V126.503C206.928 126.27 206.875 126.039 206.772 125.824C206.67 125.609 206.52 125.414 206.331 125.251C206.143 125.087 205.919 124.958 205.674 124.871C205.428 124.784 205.166 124.74 204.901 124.743Z" fill="white" stroke="#263238" stroke-linecap="round" stroke-linejoin="round"/>
<path d="M90.402 144.165H86.0598C85.5283 144.165 85.0185 144.351 84.6427 144.682C84.2668 145.013 84.0557 145.462 84.0557 145.93V146.91C84.0557 148.943 85.925 151.523 88.2338 151.523C90.5427 151.523 92.412 148.943 92.412 146.91V145.93C92.4105 145.461 92.198 145.013 91.8212 144.682C91.4445 144.351 90.9341 144.165 90.402 144.165Z" fill="white" stroke="#263238" stroke-linecap="round" stroke-linejoin="round"/>
<path d="M100.792 144.165H96.4499C95.9179 144.165 95.4075 144.351 95.0307 144.682C94.6539 145.013 94.4415 145.461 94.4399 145.93V146.91C94.4399 148.943 96.3093 151.523 98.6181 151.523C100.927 151.523 102.796 148.943 102.796 146.91V145.93C102.796 145.462 102.585 145.013 102.209 144.682C101.833 144.351 101.324 144.165 100.792 144.165Z" fill="white" stroke="#263238" stroke-linecap="round" stroke-linejoin="round"/>
<path d="M111.223 144.165H106.881C106.349 144.165 105.839 144.351 105.463 144.682C105.088 145.013 104.876 145.462 104.876 145.93V146.91C104.876 148.943 106.746 151.523 109.049 151.523C111.352 151.523 113.227 148.943 113.227 146.91V145.93C113.227 145.462 113.016 145.013 112.64 144.682C112.264 144.351 111.754 144.165 111.223 144.165Z" fill="white" stroke="#263238" stroke-linecap="round" stroke-linejoin="round"/>
<path d="M121.63 144.165H117.288C116.756 144.165 116.247 144.351 115.871 144.682C115.495 145.013 115.284 145.462 115.284 145.93V146.91C115.284 148.943 117.153 151.523 119.462 151.523C121.771 151.523 123.634 148.943 123.634 146.91V145.93C123.634 145.698 123.582 145.469 123.482 145.255C123.381 145.04 123.233 144.846 123.047 144.682C122.861 144.518 122.64 144.388 122.397 144.299C122.154 144.211 121.893 144.165 121.63 144.165Z" fill="white" stroke="#263238" stroke-linecap="round" stroke-linejoin="round"/>
<path d="M132.038 144.165H127.696C127.164 144.165 126.654 144.351 126.278 144.682C125.903 145.013 125.691 145.462 125.691 145.93V146.91C125.691 148.943 127.561 151.523 129.87 151.523C132.178 151.523 134.048 148.943 134.048 146.91V145.93C134.046 145.461 133.834 145.013 133.457 144.682C133.08 144.351 132.57 144.165 132.038 144.165Z" fill="white" stroke="#263238" stroke-linecap="round" stroke-linejoin="round"/>
<path d="M142.451 144.165H138.109C137.577 144.165 137.066 144.351 136.689 144.682C136.313 145.013 136.1 145.461 136.099 145.93V146.91C136.099 148.943 137.968 151.523 140.277 151.523C142.586 151.523 144.455 148.943 144.455 146.91V145.93C144.455 145.462 144.244 145.013 143.868 144.682C143.492 144.351 142.982 144.165 142.451 144.165Z" fill="white" stroke="#263238" stroke-linecap="round" stroke-linejoin="round"/>
<path d="M152.858 144.165H148.516C147.984 144.165 147.475 144.351 147.099 144.682C146.723 145.013 146.512 145.462 146.512 145.93V146.91C146.512 148.943 148.381 151.523 150.684 151.523C152.987 151.523 154.862 148.943 154.862 146.91V145.93C154.862 145.462 154.651 145.013 154.275 144.682C153.899 144.351 153.39 144.165 152.858 144.165Z" fill="white" stroke="#263238" stroke-linecap="round" stroke-linejoin="round"/>
<path d="M163.265 144.165H158.923C158.392 144.165 157.882 144.351 157.506 144.682C157.13 145.013 156.919 145.462 156.919 145.93V146.91C156.919 148.943 158.788 151.523 161.097 151.523C163.406 151.523 165.269 148.943 165.269 146.91V145.93C165.269 145.462 165.058 145.013 164.682 144.682C164.307 144.351 163.797 144.165 163.265 144.165Z" fill="white" stroke="#263238" stroke-linecap="round" stroke-linejoin="round"/>
<path d="M173.673 144.165H169.354C169.091 144.165 168.83 144.211 168.587 144.3C168.344 144.388 168.123 144.518 167.937 144.682C167.751 144.846 167.603 145.041 167.503 145.255C167.402 145.469 167.35 145.698 167.35 145.93V146.91C167.35 148.943 169.219 151.523 171.528 151.523C173.837 151.523 175.706 148.943 175.706 146.91V145.93C175.706 145.696 175.652 145.465 175.55 145.249C175.447 145.034 175.296 144.839 175.107 144.674C174.918 144.51 174.694 144.381 174.448 144.294C174.202 144.206 173.938 144.163 173.673 144.165Z" fill="white" stroke="#263238" stroke-linecap="round" stroke-linejoin="round"/>
<path d="M184.086 144.165H179.744C179.212 144.165 178.701 144.351 178.325 144.682C177.948 145.013 177.735 145.461 177.734 145.93V146.91C177.734 148.943 179.603 151.523 181.912 151.523C184.221 151.523 186.09 148.943 186.09 146.91V145.93C186.09 145.462 185.879 145.013 185.503 144.682C185.127 144.351 184.618 144.165 184.086 144.165Z" fill="white" stroke="#263238" stroke-linecap="round" stroke-linejoin="round"/>
<path d="M194.493 144.165H190.151C189.62 144.165 189.11 144.351 188.734 144.682C188.358 145.013 188.147 145.462 188.147 145.93V146.91C188.147 148.943 190.016 151.523 192.319 151.523C194.622 151.523 196.497 148.943 196.497 146.91V145.93C196.497 145.462 196.286 145.013 195.91 144.682C195.535 144.351 195.025 144.165 194.493 144.165Z" fill="white" stroke="#263238" stroke-linecap="round" stroke-linejoin="round"/>
<path d="M204.901 144.165H200.559C200.027 144.165 199.518 144.351 199.142 144.682C198.766 145.013 198.555 145.462 198.555 145.93V146.91C198.555 148.943 200.424 151.523 202.733 151.523C205.042 151.523 206.905 148.943 206.905 146.91V145.93C206.905 145.462 206.694 145.013 206.318 144.682C205.942 144.351 205.433 144.165 204.901 144.165Z" fill="white" stroke="#263238" stroke-linecap="round" stroke-linejoin="round"/>
<path d="M85.1984 134.769H80.8679C80.3364 134.769 79.8266 134.955 79.4508 135.286C79.0749 135.617 78.8638 136.066 78.8638 136.534V137.514C78.8638 139.542 80.7331 142.127 83.0419 142.127C85.3508 142.127 87.2143 139.547 87.2143 137.514V136.534C87.2143 136.301 87.162 136.071 87.0606 135.856C86.9591 135.641 86.8105 135.446 86.6231 135.282C86.4358 135.118 86.2135 134.988 85.969 134.9C85.7245 134.812 85.4626 134.767 85.1984 134.769Z" fill="white" stroke="#263238" stroke-linecap="round" stroke-linejoin="round"/>
<path d="M95.6061 134.769H91.2639C90.7324 134.769 90.2226 134.955 89.8468 135.286C89.4709 135.617 89.2598 136.065 89.2598 136.534V137.514C89.2598 139.542 91.1291 142.127 93.4379 142.127C95.7468 142.127 97.6161 139.547 97.6161 137.514V136.534C97.6146 136.065 97.4021 135.616 97.0253 135.285C96.6486 134.955 96.1382 134.769 95.6061 134.769Z" fill="white" stroke="#263238" stroke-linecap="round" stroke-linejoin="round"/>
<path d="M106.019 134.769H101.677C101.145 134.769 100.635 134.955 100.258 135.285C99.881 135.616 99.6685 136.065 99.667 136.534V137.514C99.667 139.542 101.542 142.127 103.845 142.127C106.148 142.127 108.023 139.547 108.023 137.514V136.534C108.023 136.065 107.812 135.617 107.436 135.286C107.061 134.955 106.551 134.769 106.019 134.769Z" fill="white" stroke="#263238" stroke-linecap="round" stroke-linejoin="round"/>
<path d="M116.426 134.769H112.084C111.553 134.769 111.043 134.955 110.667 135.286C110.291 135.617 110.08 136.065 110.08 136.534V137.514C110.08 139.542 111.949 142.127 114.252 142.127C116.555 142.127 118.431 139.547 118.431 137.514V136.534C118.431 136.302 118.379 136.072 118.278 135.858C118.177 135.644 118.03 135.45 117.844 135.286C117.657 135.122 117.437 134.992 117.193 134.903C116.95 134.814 116.69 134.769 116.426 134.769Z" fill="white" stroke="#263238" stroke-linecap="round" stroke-linejoin="round"/>
<path d="M126.834 134.769H122.474C121.942 134.769 121.433 134.955 121.057 135.286C120.681 135.617 120.47 136.065 120.47 136.534V137.514C120.47 139.542 122.339 142.127 124.648 142.127C126.957 142.127 128.82 139.547 128.82 137.514V136.534C128.82 136.068 128.612 135.622 128.239 135.291C127.867 134.961 127.362 134.773 126.834 134.769Z" fill="white" stroke="#263238" stroke-linecap="round" stroke-linejoin="round"/>
<path d="M137.241 134.769H132.899C132.368 134.769 131.858 134.955 131.482 135.286C131.106 135.617 130.895 136.065 130.895 136.534V137.514C130.895 139.542 132.764 142.127 135.073 142.127C137.382 142.127 139.251 139.547 139.251 137.514V136.534C139.25 136.065 139.037 135.616 138.661 135.285C138.284 134.955 137.773 134.769 137.241 134.769Z" fill="white" stroke="#263238" stroke-linecap="round" stroke-linejoin="round"/>
<path d="M147.672 134.769H143.33C142.798 134.769 142.287 134.955 141.911 135.285C141.534 135.616 141.321 136.065 141.32 136.534V137.514C141.32 139.542 143.195 142.127 145.498 142.127C147.801 142.127 149.676 139.547 149.676 137.514V136.534C149.676 136.065 149.465 135.617 149.089 135.286C148.713 134.955 148.204 134.769 147.672 134.769Z" fill="white" stroke="#263238" stroke-linecap="round" stroke-linejoin="round"/>
<path d="M158.062 134.769H153.719C153.188 134.769 152.678 134.955 152.302 135.286C151.926 135.617 151.715 136.065 151.715 136.534V137.514C151.715 139.542 153.585 142.127 155.888 142.127C158.191 142.127 160.066 139.547 160.066 137.514V136.534C160.066 136.065 159.855 135.617 159.479 135.286C159.103 134.955 158.593 134.769 158.062 134.769Z" fill="white" stroke="#263238" stroke-linecap="round" stroke-linejoin="round"/>
<path d="M168.469 134.769H164.127C163.595 134.769 163.085 134.955 162.71 135.286C162.334 135.617 162.123 136.065 162.123 136.534V137.514C162.123 139.542 163.992 142.127 166.301 142.127C168.61 142.127 170.473 139.547 170.473 137.514V136.534C170.473 136.065 170.262 135.617 169.886 135.286C169.51 134.955 169 134.769 168.469 134.769Z" fill="white" stroke="#263238" stroke-linecap="round" stroke-linejoin="round"/>
<path d="M178.877 134.769H174.534C174.003 134.769 173.493 134.955 173.117 135.286C172.741 135.617 172.53 136.065 172.53 136.534V137.514C172.53 139.542 174.4 142.127 176.708 142.127C179.017 142.127 180.887 139.547 180.887 137.514V136.534C180.885 136.065 180.673 135.616 180.296 135.285C179.919 134.955 179.409 134.769 178.877 134.769Z" fill="white" stroke="#263238" stroke-linecap="round" stroke-linejoin="round"/>
<path d="M189.278 134.769H184.936C184.404 134.769 183.893 134.955 183.517 135.285C183.14 135.616 182.927 136.065 182.926 136.534V137.514C182.926 139.542 184.801 142.127 187.104 142.127C189.407 142.127 191.282 139.547 191.282 137.514V136.534C191.282 136.065 191.071 135.617 190.695 135.286C190.319 134.955 189.81 134.769 189.278 134.769Z" fill="white" stroke="#263238" stroke-linecap="round" stroke-linejoin="round"/>
<path d="M199.697 134.769H195.355C194.828 134.776 194.326 134.965 193.956 135.295C193.587 135.625 193.38 136.07 193.38 136.534V137.514C193.38 139.542 195.249 142.127 197.552 142.127C199.855 142.127 201.73 139.547 201.73 137.514V136.534C201.73 136.3 201.678 136.068 201.575 135.852C201.473 135.636 201.322 135.441 201.133 135.277C200.944 135.112 200.719 134.983 200.473 134.896C200.226 134.809 199.963 134.765 199.697 134.769Z" fill="white" stroke="#263238" stroke-linecap="round" stroke-linejoin="round"/>
<path d="M210.105 134.769H205.762C205.231 134.769 204.721 134.955 204.345 135.286C203.969 135.617 203.758 136.065 203.758 136.534V137.514C203.758 139.542 205.628 142.127 207.936 142.127C210.245 142.127 212.109 139.547 212.109 137.514V136.534C212.109 136.065 211.898 135.617 211.522 135.286C211.146 134.955 210.636 134.769 210.105 134.769Z" fill="white" stroke="#263238" stroke-linecap="round" stroke-linejoin="round"/>
<path d="M185.235 153.949H105.726C104.687 153.949 103.845 154.69 103.845 155.605V160.631C103.845 161.546 104.687 162.287 105.726 162.287H185.235C186.274 162.287 187.116 161.546 187.116 160.631V155.605C187.116 154.69 186.274 153.949 185.235 153.949Z" fill="white" stroke="#263238" stroke-linecap="round" stroke-linejoin="round"/>
<path d="M195.883 154.439H191.54C191.009 154.439 190.499 154.625 190.123 154.956C189.747 155.287 189.536 155.735 189.536 156.203V157.184C189.536 159.217 191.405 161.797 193.714 161.797C196.023 161.797 197.887 159.217 197.887 157.184V156.203C197.887 155.735 197.676 155.287 197.3 154.956C196.924 154.625 196.414 154.439 195.883 154.439Z" fill="white" stroke="#263238" stroke-linecap="round" stroke-linejoin="round"/>
<path d="M99.4206 154.439H95.0783C94.5468 154.439 94.0371 154.625 93.6612 154.956C93.2854 155.287 93.0742 155.735 93.0742 156.203V157.184C93.0742 159.217 94.9436 161.797 97.2524 161.797C99.5612 161.797 101.431 159.217 101.431 157.184V156.203C101.429 155.735 101.217 155.286 100.84 154.955C100.463 154.624 99.9527 154.439 99.4206 154.439Z" fill="white" stroke="#263238" stroke-linecap="round" stroke-linejoin="round"/>
<path opacity="0.2" d="M90.6427 127.545C90.853 127.546 91.0628 127.563 91.2697 127.596C91.2697 127.56 91.2697 127.524 91.2697 127.488V126.508C91.2682 126.305 91.1755 126.11 91.0119 125.967C90.8483 125.824 90.6271 125.744 90.3966 125.744H86.0543C85.8248 125.745 85.605 125.826 85.4427 125.969C85.2804 126.112 85.1885 126.306 85.187 126.508V127.488C85.187 128.897 86.359 130.672 87.742 131.028C87.3142 129.464 88.2752 127.545 90.6427 127.545Z" fill="black"/>
<path opacity="0.2" d="M101.284 127.282C101.417 127.274 101.55 127.274 101.683 127.282V126.487C101.681 126.285 101.589 126.091 101.427 125.949C101.265 125.806 101.045 125.725 100.815 125.723H96.4732C96.2427 125.723 96.0215 125.804 95.8579 125.947C95.6943 126.09 95.6016 126.284 95.6001 126.487V127.467C95.6001 129.015 96.9889 130.95 98.5301 131.079C97.821 129.48 98.7528 127.282 101.284 127.282Z" fill="black"/>
<path opacity="0.2" d="M112.002 127.148H112.09V126.503C112.09 126.3 111.999 126.106 111.836 125.963C111.673 125.819 111.453 125.739 111.223 125.739H106.88C106.65 125.739 106.429 125.819 106.265 125.962C106.102 126.105 106.009 126.3 106.007 126.503V127.483C106.007 129.057 107.484 131.095 109.049 131.095C109.125 131.1 109.201 131.1 109.277 131.095C108.492 129.464 109.4 127.148 112.002 127.148Z" fill="black"/>
<path opacity="0.2" d="M121.748 126.884C121.991 126.878 122.235 126.895 122.474 126.936V126.487C122.474 126.285 122.383 126.09 122.22 125.947C122.058 125.804 121.837 125.723 121.607 125.723H117.265C117.035 125.723 116.814 125.804 116.651 125.947C116.489 126.09 116.397 126.285 116.397 126.487V127.467C116.397 128.943 117.687 130.821 119.14 131.079C118.144 129.459 119.005 126.884 121.748 126.884Z" fill="black"/>
<path opacity="0.2" d="M132.688 126.884H132.911V126.497C132.909 126.294 132.817 126.1 132.653 125.957C132.489 125.814 132.268 125.734 132.038 125.734H127.695C127.466 125.735 127.246 125.816 127.084 125.959C126.922 126.102 126.83 126.295 126.828 126.497V127.478C126.828 129.052 128.305 131.09 129.869 131.09C129.949 131.095 130.03 131.095 130.11 131.09C129.084 129.464 129.946 126.884 132.688 126.884Z" fill="black"/>
<path opacity="0.2" d="M143.183 126.936H143.318V126.487C143.316 126.285 143.225 126.091 143.062 125.949C142.9 125.806 142.68 125.725 142.451 125.723H138.108C137.878 125.723 137.657 125.804 137.493 125.947C137.33 126.09 137.237 126.284 137.235 126.487V127.467C137.235 129.041 138.712 131.079 140.277 131.079C140.372 131.087 140.468 131.087 140.564 131.079C139.603 129.454 140.476 126.936 143.183 126.936Z" fill="black"/>
<path opacity="0.2" d="M153.227 126.884C153.394 126.886 153.56 126.897 153.725 126.915V126.508C153.725 126.305 153.634 126.111 153.471 125.968C153.309 125.824 153.088 125.744 152.858 125.744H148.516C148.286 125.744 148.065 125.824 147.902 125.968C147.74 126.111 147.648 126.305 147.648 126.508V127.488C147.648 129.036 149.102 131.069 150.655 131.1C149.617 129.48 150.473 126.884 153.227 126.884Z" fill="black"/>
<path opacity="0.2" d="M164.133 127.019V126.503C164.133 126.3 164.042 126.106 163.879 125.963C163.716 125.819 163.496 125.739 163.266 125.739H158.923C158.693 125.739 158.473 125.819 158.31 125.963C158.148 126.106 158.056 126.3 158.056 126.503V127.483C158.056 129.057 159.527 131.095 161.098 131.095C161.255 131.093 161.411 131.07 161.56 131.028C160.717 129.439 161.578 127.091 164.133 127.019Z" fill="black"/>
<path opacity="0.2" d="M173.691 126.817C173.979 126.817 174.267 126.85 174.546 126.915V126.508C174.545 126.305 174.452 126.11 174.288 125.967C174.125 125.824 173.903 125.744 173.673 125.744H169.354C169.125 125.745 168.905 125.826 168.743 125.969C168.58 126.112 168.488 126.306 168.487 126.508V127.488C168.487 128.943 169.741 130.78 171.165 131.059C170.069 129.444 170.919 126.817 173.691 126.817Z" fill="black"/>
<path opacity="0.2" d="M184.332 126.817C184.541 126.818 184.748 126.835 184.953 126.869V126.508C184.952 126.306 184.86 126.112 184.698 125.969C184.535 125.826 184.316 125.745 184.086 125.744H179.744C179.513 125.744 179.292 125.824 179.128 125.967C178.965 126.11 178.872 126.305 178.871 126.508V127.488C178.871 129.036 180.277 131.002 181.801 131.1C180.699 129.48 181.543 126.817 184.332 126.817Z" fill="black"/>
<path opacity="0.2" d="M194.903 127.08C195.056 127.083 195.209 127.093 195.361 127.111V126.508C195.361 126.305 195.269 126.111 195.107 125.968C194.944 125.824 194.723 125.744 194.493 125.744H190.151C190.037 125.744 189.924 125.764 189.819 125.802C189.714 125.841 189.618 125.897 189.538 125.968C189.457 126.039 189.393 126.123 189.35 126.215C189.306 126.308 189.284 126.407 189.284 126.508V127.488C189.284 129.036 190.69 130.997 192.214 131.1C191.364 129.47 192.261 127.08 194.903 127.08Z" fill="black"/>
<path opacity="0.2" d="M205.768 126.962V126.508C205.768 126.305 205.677 126.111 205.514 125.968C205.352 125.824 205.131 125.744 204.901 125.744H200.559C200.329 125.744 200.108 125.824 199.945 125.968C199.783 126.111 199.691 126.305 199.691 126.508V127.488C199.691 129.062 201.162 131.1 202.733 131.1C202.959 131.097 203.182 131.055 203.389 130.976C202.557 129.418 203.342 127.137 205.768 126.962Z" fill="black"/>
<path opacity="0.2" d="M90.9415 146.028C91.0528 146.023 91.1643 146.023 91.2755 146.028V145.92C91.274 145.717 91.1813 145.522 91.0177 145.379C90.8542 145.236 90.633 145.156 90.4024 145.156H86.0601C85.8306 145.157 85.6109 145.238 85.4486 145.381C85.2863 145.524 85.1944 145.718 85.1929 145.92V146.9C85.1929 148.474 86.6696 150.512 88.2342 150.512C88.3424 150.51 88.4502 150.499 88.5565 150.481C87.2439 148.912 88.0408 146.028 90.9415 146.028Z" fill="black"/>
<path opacity="0.2" d="M101.138 146.028C101.32 146.028 101.503 146.042 101.683 146.069V145.935C101.681 145.733 101.589 145.539 101.427 145.397C101.265 145.254 101.045 145.173 100.815 145.171H96.4732C96.2427 145.171 96.0215 145.252 95.8579 145.395C95.6943 145.538 95.6016 145.732 95.6001 145.935V146.915C95.6001 148.489 97.0768 150.527 98.6414 150.527H98.7704C97.4284 148.938 98.2195 146.028 101.138 146.028Z" fill="black"/>
<path opacity="0.2" d="M111.481 146.157C111.677 146.157 111.873 146.173 112.067 146.203V145.93C112.067 145.83 112.044 145.73 112.001 145.638C111.957 145.545 111.893 145.461 111.813 145.39C111.732 145.319 111.636 145.263 111.531 145.224C111.426 145.186 111.313 145.166 111.199 145.166H106.857C106.626 145.166 106.405 145.247 106.242 145.39C106.078 145.533 105.985 145.727 105.984 145.93V146.91C105.984 148.458 107.437 150.486 108.99 150.522C107.824 148.918 108.638 146.157 111.481 146.157Z" fill="black"/>
<path opacity="0.2" d="M122.046 146.224C122.197 146.224 122.348 146.233 122.498 146.25V145.93C122.498 145.83 122.475 145.73 122.432 145.638C122.388 145.545 122.324 145.461 122.244 145.39C122.163 145.319 122.068 145.263 121.962 145.224C121.857 145.186 121.744 145.166 121.63 145.166H117.288C117.174 145.166 117.062 145.186 116.956 145.224C116.851 145.263 116.755 145.319 116.675 145.39C116.594 145.461 116.53 145.545 116.487 145.638C116.443 145.73 116.421 145.83 116.421 145.93V146.91C116.421 148.484 117.892 150.522 119.462 150.522H119.533C118.407 148.907 119.245 146.224 122.046 146.224Z" fill="black"/>
<path opacity="0.2" d="M132.243 146.028C132.467 146.028 132.691 146.047 132.911 146.085V145.935C132.909 145.732 132.817 145.538 132.653 145.395C132.489 145.252 132.268 145.171 132.038 145.171H127.695C127.466 145.173 127.246 145.254 127.084 145.397C126.922 145.539 126.83 145.733 126.828 145.935V146.915C126.828 148.489 128.305 150.527 129.869 150.527C128.533 148.949 129.319 146.028 132.243 146.028Z" fill="black"/>
<path opacity="0.2" d="M142.808 146.09C142.979 146.091 143.149 146.103 143.318 146.126V145.93C143.316 145.728 143.225 145.534 143.062 145.391C142.9 145.249 142.68 145.168 142.451 145.166H138.108C137.878 145.166 137.657 145.247 137.493 145.39C137.33 145.533 137.237 145.727 137.235 145.93V146.91C137.235 148.484 138.712 150.522 140.277 150.522H140.388C139.122 148.923 139.931 146.09 142.808 146.09Z" fill="black"/>
<path opacity="0.2" d="M153.602 146.286H153.725V145.925C153.725 145.722 153.634 145.528 153.471 145.385C153.309 145.242 153.088 145.161 152.858 145.161H148.516C148.286 145.161 148.065 145.242 147.902 145.385C147.74 145.528 147.648 145.722 147.648 145.925V146.905C147.648 148.479 149.119 150.517 150.684 150.517C150.798 150.516 150.912 150.504 151.024 150.481C150.016 148.871 150.854 146.286 153.602 146.286Z" fill="black"/>
<path opacity="0.2" d="M164.08 146.09H164.115V145.93C164.115 145.83 164.093 145.73 164.049 145.638C164.006 145.545 163.942 145.461 163.861 145.39C163.781 145.319 163.685 145.263 163.58 145.224C163.475 145.186 163.362 145.166 163.248 145.166H158.923C158.81 145.166 158.697 145.186 158.592 145.224C158.486 145.263 158.391 145.319 158.31 145.39C158.23 145.461 158.166 145.545 158.122 145.638C158.079 145.73 158.056 145.83 158.056 145.93V146.91C158.056 148.484 159.527 150.522 161.098 150.522C161.277 150.52 161.455 150.492 161.625 150.44C160.435 148.84 161.262 146.09 164.08 146.09Z" fill="black"/>
<path opacity="0.2" d="M174.212 145.894H174.54C174.531 145.696 174.436 145.509 174.274 145.372C174.113 145.235 173.898 145.157 173.673 145.156H169.354C169.125 145.157 168.905 145.238 168.743 145.381C168.58 145.524 168.488 145.718 168.487 145.92V146.9C168.487 148.474 169.964 150.512 171.528 150.512C171.671 150.508 171.813 150.489 171.95 150.455C170.479 148.918 171.241 145.894 174.212 145.894Z" fill="black"/>
<path opacity="0.2" d="M184.936 146.028V145.935C184.934 145.733 184.842 145.539 184.68 145.397C184.518 145.254 184.298 145.173 184.068 145.171H179.726C179.496 145.171 179.274 145.252 179.111 145.395C178.947 145.538 178.855 145.732 178.853 145.935V146.915C178.853 148.489 180.33 150.527 181.894 150.527C182.094 150.525 182.292 150.493 182.48 150.435C181.256 148.835 182.064 146.028 184.936 146.028Z" fill="black"/>
<path opacity="0.2" d="M195.138 146.028H195.373V145.925C195.373 145.825 195.35 145.725 195.307 145.633C195.263 145.54 195.199 145.456 195.119 145.385C195.038 145.314 194.943 145.258 194.837 145.219C194.732 145.181 194.619 145.161 194.505 145.161H190.163C189.933 145.161 189.713 145.242 189.55 145.385C189.387 145.528 189.296 145.722 189.296 145.925V146.905C189.296 148.479 190.767 150.517 192.331 150.517C192.47 150.516 192.608 150.498 192.742 150.466C191.435 148.887 192.238 146.028 195.138 146.028Z" fill="black"/>
<path opacity="0.2" d="M205.393 146.42C205.522 146.42 205.651 146.42 205.768 146.42V145.904C205.768 145.702 205.677 145.507 205.514 145.364C205.352 145.221 205.131 145.141 204.901 145.141H200.559C200.329 145.141 200.108 145.221 199.945 145.364C199.783 145.507 199.691 145.702 199.691 145.904V146.885C199.691 148.458 201.162 150.497 202.733 150.497C201.824 148.897 202.703 146.42 205.393 146.42Z" fill="black"/>
<path opacity="0.2" d="M85.9958 136.786H86.0719V136.534C86.0704 136.331 85.9777 136.136 85.8141 135.993C85.6506 135.85 85.4294 135.77 85.1988 135.77H80.8683C80.6382 135.77 80.4176 135.85 80.255 135.994C80.0923 136.137 80.001 136.331 80.001 136.534V137.514C80.001 139.088 81.4718 141.126 83.0423 141.126C83.1932 141.123 83.343 141.102 83.4877 141.064C82.3626 139.454 83.2123 136.786 85.9958 136.786Z" fill="black"/>
<path opacity="0.2" d="M96.1862 136.786H96.4792V136.523C96.4776 136.32 96.3849 136.126 96.2214 135.983C96.0578 135.84 95.8366 135.76 95.606 135.76H91.2638C91.0342 135.761 90.8145 135.842 90.6522 135.985C90.4899 136.128 90.398 136.321 90.3965 136.523V137.504C90.3965 139.077 91.8732 141.116 93.4378 141.116C93.5237 141.121 93.6098 141.121 93.6957 141.116C92.5412 139.501 93.3734 136.786 96.1862 136.786Z" fill="black"/>
<path opacity="0.2" d="M106.834 136.786H106.886V136.534C106.885 136.332 106.793 136.138 106.631 135.995C106.468 135.852 106.249 135.771 106.019 135.77H101.677C101.562 135.769 101.447 135.787 101.34 135.825C101.234 135.863 101.136 135.919 101.054 135.99C100.972 136.061 100.906 136.145 100.861 136.239C100.816 136.332 100.793 136.432 100.792 136.534V137.514C100.792 139.088 102.269 141.126 103.833 141.126C103.991 141.124 104.147 141.102 104.296 141.059C103.2 139.454 104.038 136.786 106.834 136.786Z" fill="black"/>
<path opacity="0.2" d="M117.024 136.74H117.294V136.544C117.294 136.341 117.202 136.147 117.04 136.004C116.877 135.861 116.656 135.78 116.426 135.78H112.084C111.854 135.78 111.633 135.861 111.471 136.004C111.308 136.147 111.217 136.341 111.217 136.544V137.524C111.217 139.098 112.688 141.136 114.252 141.136C114.359 141.134 114.464 141.124 114.569 141.105C113.356 139.501 114.176 136.74 117.024 136.74Z" fill="black"/>
<path opacity="0.2" d="M127.162 136.786C127.349 136.786 127.535 136.8 127.719 136.828V136.534C127.719 136.331 127.628 136.137 127.465 135.994C127.302 135.85 127.082 135.77 126.852 135.77H122.474C122.244 135.77 122.024 135.85 121.861 135.994C121.698 136.137 121.607 136.331 121.607 136.534V137.514C121.607 139.088 123.078 141.126 124.648 141.126C123.488 139.521 124.314 136.786 127.162 136.786Z" fill="black"/>
<path opacity="0.2" d="M137.64 136.456C137.796 136.457 137.953 136.465 138.109 136.482C138.092 136.289 137.994 136.108 137.833 135.976C137.672 135.844 137.461 135.771 137.241 135.77H132.899C132.669 135.771 132.45 135.852 132.287 135.995C132.125 136.138 132.033 136.331 132.032 136.534V137.514C132.032 139.088 133.508 141.126 135.073 141.126C135.186 141.124 135.297 141.112 135.407 141.09C133.884 139.557 134.628 136.456 137.64 136.456Z" fill="black"/>
<path opacity="0.2" d="M148.129 136.848C148.264 136.848 148.399 136.848 148.522 136.848V136.513C148.52 136.311 148.428 136.117 148.266 135.974C148.104 135.832 147.884 135.751 147.654 135.749H143.312C143.082 135.749 142.86 135.83 142.697 135.973C142.533 136.116 142.441 136.31 142.439 136.513V137.493C142.439 139.067 143.916 141.105 145.48 141.105H145.597C144.502 139.506 145.328 136.848 148.129 136.848Z" fill="black"/>
<path opacity="0.2" d="M158.929 136.534C158.929 136.331 158.837 136.137 158.675 135.994C158.512 135.85 158.292 135.77 158.062 135.77H153.719C153.605 135.77 153.493 135.79 153.387 135.828C153.282 135.866 153.187 135.923 153.106 135.994C153.026 136.064 152.962 136.149 152.918 136.241C152.874 136.334 152.852 136.433 152.852 136.534V137.514C152.852 139.088 154.323 141.126 155.888 141.126C156.2 141.119 156.506 141.045 156.778 140.909C155.595 139.372 156.309 136.74 158.929 136.534Z" fill="black"/>
<path opacity="0.2" d="M169.354 136.74V136.544C169.354 136.341 169.263 136.147 169.1 136.004C168.937 135.861 168.717 135.78 168.487 135.78H164.145C163.915 135.78 163.694 135.861 163.531 136.004C163.369 136.147 163.277 136.341 163.277 136.544V137.524C163.277 139.098 164.748 141.136 166.319 141.136C166.57 141.133 166.818 141.082 167.045 140.987C165.973 139.413 166.741 136.869 169.354 136.74Z" fill="black"/>
<path opacity="0.2" d="M179.386 136.585C179.509 136.585 179.632 136.585 179.75 136.585V136.518C179.748 136.315 179.655 136.121 179.492 135.978C179.328 135.835 179.107 135.754 178.877 135.754H174.534C174.305 135.756 174.085 135.837 173.923 135.98C173.76 136.122 173.669 136.316 173.667 136.518V137.498C173.667 139.072 175.144 141.111 176.708 141.111C176.819 141.109 176.929 141.097 177.036 141.074C175.677 139.521 176.456 136.585 179.386 136.585Z" fill="black"/>
<path opacity="0.2" d="M190.157 136.921V136.534C190.155 136.331 190.063 136.138 189.901 135.995C189.739 135.852 189.519 135.771 189.29 135.77H184.947C184.717 135.77 184.496 135.85 184.332 135.993C184.168 136.136 184.076 136.331 184.074 136.534V137.514C184.074 139.088 185.551 141.126 187.116 141.126C187.293 141.123 187.469 141.097 187.637 141.049C186.682 139.449 187.52 136.983 190.157 136.921Z" fill="black"/>
<path opacity="0.2" d="M200.072 136.652C200.237 136.654 200.401 136.665 200.565 136.683V136.534C200.565 136.331 200.473 136.137 200.311 135.994C200.148 135.85 199.927 135.77 199.697 135.77H195.355C195.241 135.77 195.128 135.79 195.023 135.828C194.918 135.866 194.822 135.923 194.742 135.994C194.661 136.064 194.597 136.149 194.554 136.241C194.51 136.334 194.488 136.433 194.488 136.534V137.514C194.488 139.088 195.959 141.126 197.523 141.126C197.578 141.129 197.633 141.129 197.687 141.126C196.375 139.532 197.172 136.652 200.072 136.652Z" fill="black"/>
<path opacity="0.2" d="M210.567 137.05C210.702 137.042 210.837 137.042 210.972 137.05V136.534C210.972 136.331 210.88 136.137 210.718 135.994C210.555 135.85 210.335 135.77 210.105 135.77H205.762C205.532 135.77 205.312 135.85 205.149 135.994C204.986 136.137 204.895 136.331 204.895 136.534V137.514C204.895 139.062 206.354 141.126 207.919 141.126C207.005 139.501 207.889 137.05 210.567 137.05Z" fill="black"/>
<path opacity="0.2" d="M185.979 160.662V155.574C185.979 155.229 185.662 154.95 185.27 154.95H105.691C105.3 154.95 104.982 155.229 104.982 155.574V160.662C104.982 161.007 105.3 161.286 105.691 161.286H185.27C185.662 161.286 185.979 161.007 185.979 160.662Z" fill="black"/>
<path opacity="0.2" d="M196.75 156.714V156.198C196.75 156.098 196.727 155.999 196.684 155.906C196.64 155.813 196.576 155.729 196.496 155.658C196.415 155.587 196.32 155.531 196.214 155.493C196.109 155.454 195.996 155.435 195.882 155.435H191.54C191.426 155.435 191.313 155.454 191.208 155.493C191.103 155.531 191.007 155.587 190.927 155.658C190.846 155.729 190.782 155.813 190.739 155.906C190.695 155.999 190.673 156.098 190.673 156.198V157.179C190.673 158.753 192.144 160.791 193.714 160.791C193.845 160.788 193.974 160.772 194.101 160.744C193.234 159.134 194.119 156.73 196.75 156.714Z" fill="black"/>
<path opacity="0.2" d="M99.7843 156.384C99.955 156.385 100.125 156.397 100.294 156.42V156.204C100.293 156 100.2 155.806 100.036 155.663C99.8727 155.52 99.6515 155.44 99.421 155.44H95.0787C94.8492 155.441 94.6295 155.522 94.4671 155.665C94.3048 155.808 94.213 156.001 94.2114 156.204V157.184C94.2114 158.758 95.6881 160.796 97.2528 160.796H97.3524C96.1042 159.196 96.9246 156.384 99.7843 156.384Z" fill="black"/>
<path opacity="0.2" d="M73.6601 48.762H217.3C218.287 48.762 219.234 49.1072 219.932 49.7217C220.629 50.3361 221.021 51.1696 221.021 52.0386V80.9346H69.939V52.0386C69.939 51.1696 70.331 50.3361 71.0288 49.7217C71.7267 49.1072 72.6732 48.762 73.6601 48.762Z" fill="black"/>
<path d="M205.557 54.2109H85.4273C84.4256 46.8855 82.6601 39.6568 80.1533 32.6163H210.855C208.308 39.6487 206.535 46.8801 205.557 54.2109Z" fill="white"/>
<path opacity="0.2" d="M206.741 47.2501C205.867 51.4504 205.569 54.211 205.569 54.211H85.4386C85.4386 54.211 85.1339 51.502 84.2373 47.2501H206.741Z" fill="black"/>
<path d="M205.557 54.2109H85.4273C84.4256 46.8855 82.6601 39.6568 80.1533 32.6163H210.855C208.308 39.6487 206.535 46.8801 205.557 54.2109Z" stroke="#263238" stroke-linecap="round" stroke-linejoin="round"/>
<path d="M203.922 72.3948H86.0718V115.089H203.922V72.3948Z" fill="#263238"/>
<g opacity="0.4">
<path opacity="0.4" d="M142.058 111.312L142.679 111.337C143.461 100.691 144.242 90.0264 145.023 79.3452C144.027 90.0299 143.039 100.685 142.058 111.312Z" fill="white"/>
<path opacity="0.4" d="M140.054 111.177L140.675 111.224C142.03 100.646 143.384 90.0213 144.736 79.3505C143.177 90.0282 141.616 100.637 140.054 111.177Z" fill="white"/>
<path opacity="0.4" d="M138.103 110.981C138.308 110.981 138.519 111.023 138.724 111.043C140.646 100.579 142.58 90.0127 144.525 79.3452C142.376 90.023 140.236 100.568 138.103 110.981Z" fill="white"/>
<path opacity="0.4" d="M136.127 110.718L136.754 110.806C139.247 100.486 141.759 89.9937 144.29 79.3297C141.556 90.0041 138.835 100.467 136.127 110.718Z" fill="white"/>
<path opacity="0.4" d="M134.159 110.393L134.792 110.507C137.839 100.383 140.927 89.9939 144.056 79.3402C140.728 89.9973 137.429 100.348 134.159 110.393Z" fill="white"/>
<path opacity="0.4" d="M132.202 110.001L132.835 110.14C136.427 100.243 140.119 89.98 143.822 79.335C139.902 89.98 135.993 100.197 132.202 110.001Z" fill="white"/>
<path opacity="0.4" d="M130.25 109.537L130.889 109.702C134.991 100.083 139.286 89.9595 143.587 79.3247C139.069 89.9595 134.569 100.027 130.25 109.537Z" fill="white"/>
<path opacity="0.4" d="M128.334 109.01L128.973 109.191C133.608 99.9028 138.472 89.9389 143.371 79.3196C138.232 89.9389 133.145 99.8306 128.334 109.01Z" fill="white"/>
<path opacity="0.4" d="M126.388 108.406L127.033 108.613C132.166 99.6757 137.622 89.913 143.118 79.3092C137.393 89.913 131.709 99.588 126.388 108.406Z" fill="white"/>
<path opacity="0.4" d="M124.49 107.725L125.134 107.963C130.737 99.428 136.784 89.9026 142.884 79.299C136.538 89.8821 130.274 99.3558 124.49 107.725Z" fill="white"/>
<path opacity="0.4" d="M122.609 106.962L123.253 107.235C129.301 99.1597 135.94 89.8459 142.65 79.2886C135.7 89.8459 128.832 99.072 122.609 106.962Z" fill="white"/>
<path opacity="0.4" d="M120.757 106.115L121.401 106.425C127.847 98.8553 135.096 89.8046 142.415 79.2731C135.74 88.5515 128.51 97.5115 120.757 106.115Z" fill="white"/>
<path opacity="0.4" d="M118.958 105.187C119.169 105.305 119.392 105.414 119.608 105.527C127.741 97.1859 135.287 88.4148 142.205 79.2627C135.126 88.3539 127.359 97.0147 118.958 105.187Z" fill="white"/>
<path opacity="0.4" d="M117.159 104.16L117.797 104.547C126.573 96.6778 134.647 88.2248 141.946 79.2627C134.495 88.1619 126.203 96.4905 117.159 104.16Z" fill="white"/>
<path opacity="0.4" d="M141.712 79.2317C132.284 89.6291 123.06 97.56 115.442 103.04L116.069 103.468C125.474 96.1271 134.061 88.0113 141.712 79.2317Z" fill="white"/>
<path opacity="0.4" d="M141.478 79.2163C131.434 89.5363 121.619 97.0802 113.772 101.827L114.393 102.297C122.134 97.2505 131.698 89.5621 141.478 79.2163Z" fill="white"/>
<path opacity="0.4" d="M141.226 79.2008C130.578 89.4434 120.206 96.5436 112.184 100.507C112.377 100.682 112.57 100.857 112.77 101.023C120.716 96.7397 130.859 89.4692 141.226 79.2008Z" fill="white"/>
<path opacity="0.4" d="M141.009 79.1802C129.781 89.3196 118.87 95.9502 110.719 99.0978L111.305 99.6602C119.374 96.1669 130.039 89.3505 141.009 79.1802Z" fill="white"/>
<path opacity="0.4" d="M109.371 97.5912C109.541 97.7976 109.717 98.004 109.893 98.2052C118.067 95.5478 129.231 89.2062 140.781 79.1648C128.996 89.1597 117.593 95.295 109.371 97.5912Z" fill="white"/>
<path opacity="0.4" d="M108.175 96.0225C108.328 96.2392 108.486 96.4559 108.644 96.6727C116.848 94.8563 128.498 89.0204 140.546 79.1287C128.263 88.9636 116.409 94.5828 108.175 96.0225Z" fill="white"/>
<path opacity="0.4" d="M107.156 94.428C107.285 94.6551 107.419 94.877 107.554 95.104C115.758 94.1236 127.806 88.8036 140.312 79.1338C127.601 88.7108 115.36 93.8088 107.156 94.428Z" fill="white"/>
<path opacity="0.4" d="M106.324 92.7975C106.429 93.0245 106.541 93.2567 106.652 93.4837C114.809 93.3083 127.162 88.5147 140.054 79.0977C127.015 88.4166 114.469 92.9781 106.324 92.7975Z" fill="white"/>
<path opacity="0.4" d="M144.044 111.384H144.66C144.847 100.72 145.043 90.042 145.246 79.3505C144.836 90.0351 144.435 100.713 144.044 111.384Z" fill="white"/>
<path opacity="0.4" d="M146.025 111.394H146.647C146.256 100.73 145.865 90.0523 145.475 79.3607L146.025 111.394Z" fill="white"/>
<path opacity="0.4" d="M148.006 111.348H148.627C147.651 100.718 146.674 90.0541 145.697 79.3557C146.467 90.0404 147.236 100.704 148.006 111.348Z" fill="white"/>
<path opacity="0.4" d="M150.016 111.239L150.637 111.198C149.075 100.648 147.512 90.0317 145.949 79.3505C147.293 90.0317 148.649 100.661 150.016 111.239Z" fill="white"/>
<path opacity="0.4" d="M151.967 111.074L152.589 111.007C150.463 100.58 148.315 90.0264 146.143 79.3452C148.1 90.0264 150.041 100.603 151.967 111.074Z" fill="white"/>
<path opacity="0.4" d="M153.942 110.842L154.569 110.759C151.874 100.491 149.149 90.0196 146.395 79.3452C148.926 90.023 151.442 100.522 153.942 110.842Z" fill="white"/>
<path opacity="0.4" d="M155.911 110.548L156.538 110.445C153.284 100.379 149.981 90.0111 146.629 79.3402C149.746 90.0111 152.841 100.414 155.911 110.548Z" fill="white"/>
<path opacity="0.4" d="M157.868 110.187L158.507 110.058C154.71 100.254 150.795 90.0007 146.863 79.335C150.579 90.0024 154.247 100.286 157.868 110.187Z" fill="white"/>
<path opacity="0.4" d="M159.826 109.764L160.458 109.604C156.134 100.073 151.627 89.9956 147.098 79.3247C151.405 89.9853 155.694 100.104 159.826 109.764Z" fill="white"/>
<path opacity="0.4" d="M161.765 109.263L162.41 109.077C157.564 99.8822 152.448 89.9853 147.332 79.3196C152.243 89.9647 157.118 99.9389 161.765 109.263Z" fill="white"/>
<path opacity="0.4" d="M163.693 108.69L164.338 108.479C159.005 99.6602 153.309 89.944 147.566 79.3092C153.081 89.944 158.548 99.7273 163.693 108.69Z" fill="white"/>
<path opacity="0.4" d="M165.603 108.045C165.82 107.963 166.043 107.891 166.254 107.808C160.453 99.4177 154.159 89.9181 147.801 79.299C153.924 89.9181 159.978 99.4899 165.603 108.045Z" fill="white"/>
<path opacity="0.4" d="M167.496 107.328L168.147 107.055C161.906 99.1442 155.009 89.8923 148.035 79.2937C154.768 89.882 161.425 99.2268 167.496 107.328Z" fill="white"/>
<path opacity="0.4" d="M169.354 106.518C169.571 106.42 169.787 106.311 169.998 106.208C162.216 97.5744 154.959 88.5834 148.258 79.2731C155.618 89.8511 162.908 98.9275 169.354 106.518Z" fill="white"/>
<path opacity="0.4" d="M171.194 105.625L171.85 105.285C163.412 97.0828 155.613 88.3891 148.504 79.2627C155.447 88.4509 163.025 97.2549 171.194 105.625Z" fill="white"/>
<path opacity="0.4" d="M148.738 79.2473C156.067 88.2513 164.176 96.7425 172.993 104.645L173.643 104.258C164.554 96.5559 156.222 88.1891 148.738 79.2473Z" fill="white"/>
<path opacity="0.4" d="M148.973 79.2317C156.66 88.0535 165.294 96.2027 174.757 103.566C174.973 103.427 175.179 103.283 175.39 103.138C167.748 97.6581 158.454 89.691 148.973 79.2317Z" fill="white"/>
<path opacity="0.4" d="M149.207 79.2163C159.052 89.624 168.674 97.3434 176.438 102.39C176.649 102.235 176.866 102.08 177.071 101.92C169.195 97.1834 159.316 89.6189 149.207 79.2163Z" fill="white"/>
<path opacity="0.4" d="M149.43 79.2008C159.89 89.5208 170.086 96.8429 178.056 101.121C178.261 100.95 178.454 100.77 178.642 100.605C170.614 96.6468 160.165 89.5208 149.43 79.2008Z" fill="white"/>
<path opacity="0.4" d="M149.676 79.1802C160.734 89.4279 171.481 96.2753 179.562 99.7428L180.148 99.1752C171.997 96.0637 160.997 89.4073 149.676 79.1802Z" fill="white"/>
<path opacity="0.4" d="M181.01 98.2774C181.191 98.071 181.361 97.8646 181.537 97.6531C173.304 95.4085 161.795 89.2526 149.893 79.1648C161.543 89.2939 172.817 95.6562 181.01 98.2774Z" fill="white"/>
<path opacity="0.4" d="M182.281 96.7241L182.762 96.0636C174.517 94.6962 162.551 89.0615 150.139 79.1439C162.322 89.1182 174.042 94.9697 182.281 96.7241Z" fill="white"/>
<path opacity="0.4" d="M183.418 95.1193C183.559 94.8923 183.693 94.6652 183.828 94.433C175.624 93.917 163.254 88.8138 150.426 79.1233C163.014 88.8964 175.214 94.2266 183.418 95.1193Z" fill="white"/>
<path opacity="0.4" d="M150.602 79.0977C163.635 88.623 176.152 93.4167 184.297 93.4889C184.414 93.2567 184.526 93.0245 184.637 92.7923C176.503 93.0864 163.822 88.5198 150.602 79.0977Z" fill="white"/>
</g>
<path opacity="0.2" d="M128.334 80.1192C126.113 85.1348 128.516 99.7272 144.543 99.7272C160.57 99.7272 166.389 89.4743 165.738 83.1378L187.133 80.1038C187.133 80.1038 193.691 96.0585 179.767 107.22C165.844 118.381 117.581 117.658 107.379 109.175C97.1765 100.692 102.837 83.9325 102.837 83.9325L128.334 80.1192Z" fill="black"/>
<path d="M222.235 58.4783V54.9592C222.234 54.829 222.282 54.7021 222.369 54.5971C222.457 54.4922 222.58 54.4147 222.721 54.3761L225.651 53.5712V50.052C225.651 49.6305 225.841 49.2263 226.18 48.9282C226.518 48.6302 226.977 48.4628 227.456 48.4628H230.972C231.145 48.4599 231.313 48.5164 231.44 48.6204C231.567 48.7243 231.643 48.8676 231.652 49.02V50.1552C231.652 50.3104 231.582 50.4592 231.458 50.5694C231.334 50.6795 231.166 50.7421 230.99 50.7435H226.519V54.1852C226.516 54.289 226.485 54.3906 226.426 54.4808C226.368 54.5709 226.285 54.6467 226.185 54.7012L223.688 56.0325V58.4835L222.235 58.4783Z" fill="#999999" stroke="#263238" stroke-linecap="round" stroke-linejoin="round"/>
<path d="M226.091 58.4783H222.235V68.6332H226.091V58.4783Z" fill="#263238"/>
<path d="M230.914 57.6166H226.091V69.4949H230.914V57.6166Z" fill="#757575"/>
<path opacity="0.2" d="M230.902 64.8508H226.091V69.4948H230.902V64.8508Z" fill="black"/>
<path d="M230.914 57.6166H226.091V69.4949H230.914V57.6166Z" stroke="#263238" stroke-linecap="round" stroke-linejoin="round"/>
<path d="M64.8701 68.6279H68.726V58.4731H64.8701V68.6279Z" fill="#263238"/>
<path d="M60.0474 69.4897H64.8702V57.6115H60.0474V69.4897Z" fill="#757575"/>
<path opacity="0.2" d="M64.876 64.8508H60.0532V69.3813H64.876V64.8508Z" fill="black"/>
<path d="M60.0474 69.4897H64.8702V57.6115H60.0474V69.4897Z" stroke="#263238" stroke-linecap="round" stroke-linejoin="round"/>
<path d="M68.146 64.1594C68.4942 63.355 68.5481 62.4749 68.3001 61.6422C68.0521 60.8095 67.5147 60.0659 66.763 59.5154L63.9268 57.4514C63.7463 57.3175 63.5365 57.2178 63.3103 57.1585C63.0841 57.0992 62.8465 57.0815 62.6122 57.1067C62.378 57.1319 62.1521 57.1993 61.9488 57.3048C61.7455 57.4103 61.569 57.5515 61.4304 57.7197L50.1851 71.3783C49.9711 71.6338 49.8561 71.9431 49.8569 72.2606V86.9305C49.8569 87.1274 49.9013 87.3224 49.9876 87.504C50.0739 87.6857 50.2003 87.8504 50.3595 87.9887C50.5187 88.127 50.7075 88.236 50.915 88.3094C51.1225 88.3829 51.3445 88.4193 51.5681 88.4166C52.0157 88.4166 52.4449 88.26 52.7614 87.9813C53.0779 87.7026 53.2557 87.3246 53.2557 86.9305V75.0161C53.2568 74.722 53.3612 74.4354 53.5546 74.1956L61.9637 63.8756C62.0373 63.785 62.1315 63.7088 62.2403 63.6519C62.3491 63.595 62.4701 63.5587 62.5957 63.5451C62.7213 63.5315 62.8487 63.541 62.9699 63.573C63.0911 63.6051 63.2034 63.6589 63.2998 63.7311L64.8468 64.887C65.2298 65.1732 65.7157 65.3304 66.2181 65.3307C66.6358 65.3285 67.0432 65.2156 67.387 65.0067C67.7309 64.7978 67.9954 64.5025 68.146 64.1594Z" fill="white" stroke="#263238" stroke-linecap="round" stroke-linejoin="round"/>
<path d="M65.8253 62.823C66.2687 62.823 66.6281 62.5065 66.6281 62.1161C66.6281 61.7257 66.2687 61.4092 65.8253 61.4092C65.3819 61.4092 65.0225 61.7257 65.0225 62.1161C65.0225 62.5065 65.3819 62.823 65.8253 62.823Z" fill="#999999" stroke="#263238" stroke-linecap="round" stroke-linejoin="round"/>
<path d="M218.66 53.571H72.3066V73.5299H218.66V53.571Z" fill="#263238"/>
<path opacity="0.2" d="M216.545 55.0726H74.3634C73.9167 55.0726 73.5547 55.3914 73.5547 55.7847V59.0149C73.5547 59.4081 73.9167 59.7269 74.3634 59.7269H216.545C216.991 59.7269 217.353 59.4081 217.353 59.0149V55.7847C217.353 55.3914 216.991 55.0726 216.545 55.0726Z" fill="white"/>
<path d="M205.557 77.5444H85.4273C82.042 70.7306 80.2484 63.3867 80.1533 55.9498H210.855C210.855 65.9499 205.557 77.5444 205.557 77.5444Z" fill="white"/>
<g opacity="0.7">
<path opacity="0.7" d="M95.1431 75.9242C95.1431 75.9242 97.7742 75.8004 99.2451 75.0212C100.716 74.242 100.61 75.723 101.454 75.821C102.298 75.9191 104.291 75.305 105.345 75.305C106.4 75.305 105.597 75.8726 106.787 75.821C107.976 75.7694 107.338 75.8726 107.959 75.7694L113.051 75.0212C113.051 75.0212 115.635 74.5826 116.157 74.8045C116.679 75.0264 117.364 76.1203 118.126 75.8365C118.888 75.5527 118.483 75.3205 119.632 75.3205C120.342 75.3234 121.048 75.4137 121.73 75.5888C121.73 75.5888 121.835 75.3257 122.363 75.3205H123.306C123.306 75.3205 125.304 75.7849 125.621 75.7849C125.937 75.7849 128.299 75.3257 128.381 75.3205C128.463 75.3153 130.725 74.8045 130.725 74.8045C131.205 75.2462 131.813 75.5638 132.483 75.723C133.339 75.821 134.241 75.6198 134.886 75.8726C135.53 76.1255 137.652 75.7694 137.652 75.7694C138.158 75.7723 138.663 75.8068 139.163 75.8726C139.82 76.0046 140.504 75.9868 141.15 75.821C142.338 75.5444 143.585 75.5267 144.783 75.7694C146.688 76.0739 148.44 75.3102 149.248 75.305C150.057 75.2999 153.292 75.6198 154.405 75.6198C155.519 75.6198 158.466 75.9707 160.517 75.7694C162.568 75.5682 163.91 76.0223 165.287 76.0223C166.664 76.0223 168.135 75.9707 168.452 75.9707C168.768 75.9707 170.292 75.0935 172.472 75.305C174.652 75.5166 172.712 75.0419 174.054 75.305C175.396 75.5682 176.456 75.821 177.025 75.8726C177.481 75.896 177.938 75.8787 178.39 75.821L180.734 75.6714H192.419" stroke="#263238" stroke-linecap="round" stroke-linejoin="round"/>
<path opacity="0.7" d="M92.7109 71.9407C92.7109 71.9407 99.948 71.9407 101.255 71.8375C102.562 71.7343 103.259 71.146 103.956 71.146C104.654 71.146 108.175 71.7343 108.175 71.7343C108.278 71.5419 108.446 71.3821 108.656 71.2768C108.866 71.1715 109.107 71.1258 109.347 71.146C110.303 71.146 109.816 71.2234 110.695 71.533C111.574 71.8426 111.117 71.533 111.58 71.8375C112.27 72.1104 113 72.2979 113.748 72.3947C113.748 72.3947 117.012 72.5289 117.135 71.8375C117.258 71.146 118.893 72.3947 118.893 72.3947C118.893 72.3947 123.324 71.8375 125.035 71.8375C126.746 71.8375 131.035 71.533 131.035 71.533C131.035 71.533 134.551 71.9407 134.715 71.9407C134.879 71.9407 135.46 72.7508 136.087 72.3947C136.714 72.0387 137.317 71.6311 138.061 71.7343C138.753 71.8852 139.421 72.1069 140.054 72.3947L141.689 71.6311L143.564 71.7343C143.564 71.7343 145.474 72.854 146.84 72.3947C147.879 72.0289 148.895 71.612 149.881 71.146L151.563 72.3947H152.665L155.929 71.8375C156.18 72.1093 156.518 72.308 156.9 72.4075C157.282 72.5069 157.689 72.5025 158.068 72.3947C159.45 72.0439 172.665 72.3947 176.028 72.3947C179.392 72.3947 180.13 71.6311 180.13 71.6311L182.721 72.3947H195.613" stroke="#263238" stroke-linecap="round" stroke-linejoin="round"/>
</g>
<path opacity="0.2" d="M206.782 74.562C206.073 76.4196 205.557 77.5445 205.557 77.5445H85.4274C85.4274 77.5445 84.8414 76.4609 84.0386 74.562H206.782Z" fill="black"/>
<path opacity="0.2" d="M209.284 66.7498C208.88 68.2978 208.434 69.8096 207.995 71.1461H82.7316C82.2979 69.8354 81.8526 68.3545 81.4658 66.7498H209.284Z" fill="black"/>
<path d="M205.557 77.5444H85.4273C82.042 70.7306 80.2484 63.3867 80.1533 55.9498H210.855C210.855 65.9499 205.557 77.5444 205.557 77.5444Z" stroke="#263238" stroke-linecap="round" stroke-linejoin="round"/>
<path d="M72.2772 52.5442H68.6968V74.5671H72.2772V52.5442Z" fill="#757575"/>
<path opacity="0.2" d="M72.2069 68.0345H68.7202V74.5671H72.2069V68.0345Z" fill="black"/>
<path d="M72.2772 52.5442H68.6968V74.5671H72.2772V52.5442Z" stroke="#263238" stroke-linecap="round" stroke-linejoin="round"/>
<path d="M222.264 52.5442H218.684V74.5671H222.264V52.5442Z" fill="#757575"/>
<path opacity="0.2" d="M222.264 68.0345H218.654V74.5671H222.264V68.0345Z" fill="black"/>
<path d="M222.264 52.5442H218.684V74.5671H222.264V52.5442Z" stroke="#263238" stroke-linecap="round" stroke-linejoin="round"/>
<path d="M218.713 51.6206V67.6837H72.2482V51.6206H70.8418V68.7621H220.119V51.6206H218.713Z" fill="#999999" stroke="#263238" stroke-linecap="round" stroke-linejoin="round"/>
<path d="M227.368 78.6796V114.702C227.368 115.309 227.094 115.892 226.606 116.322C226.118 116.751 225.456 116.993 224.766 116.993H66.177C65.487 116.993 64.8252 116.751 64.3373 116.322C63.8493 115.892 63.5752 115.309 63.5752 114.702V78.6796C63.5752 78.072 63.8493 77.4892 64.3373 77.0596C64.8252 76.6299 65.487 76.3886 66.177 76.3886H139.251V78.6796C139.251 78.6796 126.775 88.2101 105.263 91.7241C108.346 104.01 125.187 113.396 145.51 113.396C165.832 113.396 182.674 104 185.762 91.7241C164.221 88.2101 151.745 78.6796 151.745 78.6796V76.3679H224.784C225.126 76.3699 225.464 76.4314 225.78 76.5487C226.095 76.666 226.381 76.837 226.621 77.0517C226.861 77.2664 227.05 77.5207 227.178 77.8001C227.307 78.0794 227.371 78.3783 227.368 78.6796Z" fill="white" stroke="#263238" stroke-linecap="round" stroke-linejoin="round"/>
<path d="M227.368 78.6796V114.702C227.368 115.003 227.301 115.301 227.169 115.579C227.038 115.858 226.846 116.111 226.604 116.323C226.362 116.536 226.074 116.705 225.758 116.82C225.441 116.935 225.103 116.993 224.76 116.993H66.177C65.8349 116.993 65.4959 116.935 65.1796 116.82C64.8632 116.705 64.5757 116.536 64.3335 116.323C64.0912 116.111 63.8991 115.858 63.7679 115.579C63.6368 115.301 63.5693 115.003 63.5693 114.702V78.6796C63.5709 78.071 63.8461 77.4878 64.3348 77.0574C64.8235 76.6271 65.4859 76.3848 66.177 76.3834H139.251V78.6796C139.251 78.6796 126.769 88.205 105.263 91.7241C108.346 104.01 125.187 113.396 145.516 113.396C165.844 113.396 182.674 104 185.762 91.7241C164.221 88.205 151.745 78.6796 151.745 78.6796V76.3679H224.784C225.474 76.3734 226.134 76.6198 226.619 77.0532C227.103 77.4866 227.373 78.0715 227.368 78.6796Z" fill="white"/>
<path opacity="0.2" d="M223.852 79.2318V112.488C223.852 112.709 223.802 112.928 223.706 113.132C223.609 113.336 223.468 113.522 223.29 113.677C223.112 113.833 222.9 113.957 222.668 114.04C222.436 114.124 222.187 114.166 221.936 114.165H67.7356C67.4852 114.166 67.2372 114.123 67.0058 114.039C66.7744 113.955 66.5642 113.831 66.3872 113.675C66.2102 113.519 66.0699 113.334 65.9745 113.131C65.879 112.927 65.8303 112.708 65.8311 112.488V79.2318C65.8303 79.0109 65.8789 78.792 65.9742 78.5876C66.0695 78.3833 66.2096 78.1975 66.3865 78.0408C66.5633 77.8841 66.7735 77.7596 67.0049 77.6745C67.2364 77.5893 67.4847 77.5451 67.7356 77.5444H139.228V78.6796C139.228 78.6796 126.746 88.205 105.24 91.7241C108.322 104.01 125.164 113.396 145.492 113.396C165.82 113.396 182.65 104 185.738 91.7241C164.197 88.205 151.721 78.6796 151.721 78.6796V77.5444H221.953C222.458 77.5485 222.941 77.7281 223.297 78.0441C223.652 78.3601 223.852 78.7869 223.852 79.2318Z" fill="white"/>
<path d="M227.368 78.6796V114.702C227.368 115.003 227.301 115.301 227.169 115.579C227.038 115.858 226.846 116.111 226.604 116.323C226.362 116.536 226.074 116.705 225.758 116.82C225.441 116.935 225.103 116.993 224.76 116.993H66.177C65.8349 116.993 65.4959 116.935 65.1796 116.82C64.8632 116.705 64.5757 116.536 64.3335 116.323C64.0912 116.111 63.8991 115.858 63.7679 115.579C63.6368 115.301 63.5693 115.003 63.5693 114.702V78.6796C63.5709 78.071 63.8461 77.4878 64.3348 77.0574C64.8235 76.6271 65.4859 76.3848 66.177 76.3834H139.251V78.6796C139.251 78.6796 126.769 88.205 105.263 91.7241C108.346 104.01 125.187 113.396 145.516 113.396C165.844 113.396 182.674 104 185.762 91.7241C164.221 88.205 151.745 78.6796 151.745 78.6796V76.3679H224.784C225.474 76.3734 226.134 76.6198 226.619 77.0532C227.103 77.4866 227.373 78.0715 227.368 78.6796Z" stroke="#263238" stroke-linecap="round" stroke-linejoin="round"/>
<path opacity="0.2" d="M174.98 127.669L182.768 146.797C182.768 146.797 186.137 125.744 188.147 125.744C190.157 125.744 194.488 137.256 194.488 137.256C194.488 137.256 197.16 131.25 199.691 131.033C202.223 130.816 204.514 145.78 204.514 145.78L204.907 178.995L201.713 229.228C201.713 229.228 181.338 209.465 175.396 204.372C169.454 199.279 163.775 188.072 162.134 185.796C160.494 183.521 160.078 171.606 160.078 171.606C162.155 169.266 163.241 166.361 163.148 163.391C163.148 163.391 167.93 156.343 167.637 151.142C167.344 145.94 166.606 125.729 174.98 127.669Z" fill="black" fill-opacity="0.7"/>
<path d="M236.281 220.332L205.434 234.62C205.434 234.476 201.379 228.691 196.48 222.148C194.265 219.186 191.874 216.075 189.606 213.258C185.891 208.65 181.168 204.671 180.764 203.804C179.592 201.224 170.555 191.565 168.534 187.808C166.512 184.052 166.049 172.365 165.158 169.614C164.268 166.864 166.823 164.238 168.874 162.958C170.925 161.678 173.075 158.314 173.075 158.314C173.075 158.314 170.807 150.533 170.784 146.575C170.761 142.617 169.231 128.804 171.059 127.514C172.888 126.224 174.523 126.766 174.98 127.653C176.48 130.579 177.828 137.937 178.982 141.327C180.137 144.717 182.305 154.552 183.371 155.259C184.438 155.966 186.336 153.314 186.336 153.314C186.336 153.314 186.518 145.058 186.922 141.637L186.336 130.801C186.336 130.801 185.241 124.289 187.79 123.67C191.306 122.818 192.589 124.764 192.988 125.584C193.386 126.404 195.027 131.131 195.027 131.131L195.121 131.456C195.121 131.487 195.121 131.518 195.121 131.554V131.611C195.148 131.7 195.177 131.798 195.208 131.905C195.273 132.122 195.349 132.38 195.431 132.674C196.211 135.362 197.711 140.744 197.646 142.07C197.558 143.861 196.849 153.778 197.851 155.837L199.41 142.137C199.41 142.137 196.896 131.58 197.629 130.058C198.361 128.536 201.813 130.218 202.223 130.816C202.633 131.415 205.985 135.037 206.583 136.42L207.169 137.803C207.169 137.803 207.995 134.531 209.935 135.383C211.874 136.234 212.115 140.393 212.249 142.21C212.384 144.026 213.791 155.708 214.007 155.729C214.224 155.749 216.463 161.818 216.158 165.827C215.519 174.408 217.207 180.791 217.266 184.083C217.324 187.375 214.505 195.002 214.505 195.002C214.605 195.151 216.445 197.907 216.949 200.327C217.318 202.102 223.887 208.516 229.255 213.619C232.988 217.138 236.117 220.017 236.281 220.332Z" fill="white"/>
<path opacity="0.4" d="M196.486 222.159C194.271 219.197 191.88 216.085 189.612 213.268C185.897 208.66 181.174 204.682 180.769 203.815C179.597 201.235 170.561 191.575 168.54 187.819C166.518 184.062 166.055 172.375 165.164 169.625C164.274 166.874 166.829 164.248 168.88 162.968C170.931 161.689 173.081 158.324 173.081 158.324C173.081 158.324 170.813 150.543 170.79 146.585C170.766 142.628 169.237 128.814 171.065 127.524C172.894 126.234 174.529 126.776 174.986 127.664C176.486 130.589 177.834 137.947 178.988 141.338C180.142 144.728 182.311 154.563 183.377 155.27C184.444 155.977 186.342 153.324 186.342 153.324C186.342 153.324 186.524 145.068 186.928 141.647L186.342 130.811C186.342 130.811 185.246 124.299 187.796 123.68C191.312 122.829 192.595 124.774 192.993 125.594C193.392 126.415 195.033 131.141 195.033 131.141L195.126 131.467C195.126 131.497 195.126 131.528 195.126 131.565V131.621C195.15 131.711 195.179 131.809 195.214 131.915C195.279 132.132 195.355 132.39 195.437 132.684C194.529 131.42 193.281 130.342 191.61 130.058C186.922 129.253 187.936 133.845 188.382 136.601C188.634 138.429 188.585 140.28 188.235 142.096L189.407 141.503C188.563 142.829 187.356 153.851 187.356 156.302C187.356 158.753 185.153 159.568 183.178 158.851C181.203 158.133 180.5 146.885 179 144.867C177.5 142.849 173.327 146.704 173.14 150.228C172.952 153.753 176.685 164.263 175.8 166.74C174.915 169.217 174.927 178.608 174.927 178.608L173.849 176.188C173.919 176.518 173.849 177.628 171.593 180.894C170.745 182.076 170.197 183.405 169.986 184.791C169.775 186.177 169.905 187.586 170.368 188.923C171.745 191.601 178.73 198.66 179.902 199.388C179.902 199.388 180.752 196.323 183.418 197.138C182.51 198.409 181.849 199.804 181.461 201.266C180.91 203.516 186.471 204.955 188.212 207.097C189.278 208.402 189.993 212.38 196.486 222.159Z" fill="white"/>
<path opacity="0.4" d="M229.29 213.624C223.805 208.758 214.154 204.124 214.74 202.912C215.525 201.281 214.529 197.809 212.841 194.991C211.153 192.174 213.427 187.602 213.427 187.602L214.47 190.26C215.305 187.195 215.402 184.01 214.757 180.91C213.691 175.641 212.859 177.494 212.859 177.494C212.859 177.494 213.075 172.746 214.031 170.156C214.986 167.566 215.789 161.276 214.47 157.555C213.152 153.835 210.368 154.537 209.624 155.817C208.88 157.096 209.677 162.086 210.292 163.722C210.907 165.357 208.288 168.108 208.235 166.064C208.182 164.021 207.192 158.324 207.192 158.324L209.178 146.885L207.192 137.798C207.192 137.798 208.018 134.526 209.958 135.378C211.897 136.229 212.138 140.388 212.273 142.204C212.407 144.021 213.814 155.703 214.031 155.724C214.247 155.744 216.486 161.812 216.181 165.822C215.542 174.403 217.23 180.786 217.289 184.078C217.347 187.37 214.529 194.996 214.529 194.996C214.628 195.146 216.468 197.901 216.972 200.322C217.341 202.097 223.91 208.51 229.278 213.614L229.29 213.624Z" fill="white"/>
<path opacity="0.4" d="M206.582 136.42C206.694 136.678 206.787 136.89 206.858 137.06C204.994 133.247 201.818 134.428 201.256 135.512C200.693 136.596 202.586 143.319 203.014 144.361C203.441 145.404 201.314 153.727 201.004 156.482C200.693 159.238 199.867 159.8 199.867 159.8C197.763 159.939 197.523 154.826 197.523 154.124C197.564 154.711 197.694 155.291 197.91 155.847L199.468 142.148C199.468 142.148 196.896 131.58 197.628 130.058C198.361 128.536 201.812 130.218 202.223 130.816C202.633 131.415 205.985 135.037 206.582 136.42Z" fill="white"/>
<path d="M236.281 220.332C235.883 219.537 217.582 203.304 216.943 200.322C216.428 197.834 214.494 194.991 214.494 194.991C214.494 194.991 217.312 187.38 217.254 184.073C217.195 180.765 215.496 174.398 216.146 165.817C216.451 161.807 214.218 155.739 213.996 155.718C213.773 155.698 212.367 144.016 212.238 142.199C212.109 140.383 211.868 136.224 209.923 135.373C207.977 134.521 207.157 137.793 207.157 137.793L206.571 136.41C205.985 135.027 202.621 131.405 202.211 130.806C201.801 130.207 198.355 128.52 197.617 130.048C196.879 131.575 199.451 142.117 199.451 142.117L197.904 155.832C196.902 153.768 197.611 143.856 197.699 142.065C197.787 140.275 195.033 131.126 195.033 131.126C195.033 131.126 193.38 126.42 192.993 125.574C192.607 124.728 191.312 122.808 187.796 123.659C185.246 124.279 186.342 130.791 186.342 130.791L186.928 141.627C186.536 145.063 186.342 153.304 186.342 153.304C186.342 153.304 184.444 155.951 183.377 155.249C182.311 154.547 180.142 144.717 178.988 141.317C177.834 137.916 176.486 130.569 174.986 127.643C174.529 126.755 172.894 126.214 171.065 127.504C169.237 128.794 170.761 142.602 170.79 146.565C170.819 150.528 173.081 158.304 173.081 158.304C173.081 158.304 170.931 161.647 168.88 162.948C166.829 164.248 164.274 166.849 165.164 169.604C166.055 172.359 166.518 184.052 168.54 187.798C170.561 191.544 179.574 201.214 180.769 203.794C181.174 204.661 185.897 208.639 189.612 213.247C196.908 222.293 205.434 234.403 205.434 234.61" stroke="#263238" stroke-linecap="round" stroke-linejoin="round"/>
<path d="M173.075 158.329C173.075 158.329 174.529 164.671 174.476 165.734C174.476 165.734 173.204 170.631 173.192 173.804C172.303 175 171.504 176.246 170.802 177.535C170.309 178.681 169.43 181.498 169.794 183.066" stroke="#263238" stroke-linecap="round" stroke-linejoin="round"/>
<path d="M170.42 167.7C170.42 167.7 173.983 167.726 173.755 169.047" stroke="#263238" stroke-linecap="round" stroke-linejoin="round"/>
<path d="M173.192 173.804C173.192 173.804 170.907 172.932 170.104 174.104" stroke="#263238" stroke-linecap="round" stroke-linejoin="round"/>
<path d="M186.348 153.324C186.348 153.324 186.184 158.185 184.73 157.798" stroke="#263238" stroke-linecap="round" stroke-linejoin="round"/>
<path d="M197.904 155.832C197.904 155.832 197.482 158.489 198.619 159.31" stroke="#263238" stroke-linecap="round" stroke-linejoin="round"/>
<path d="M207.174 137.803C207.174 137.803 208.757 144.511 209.12 146.1C209.483 147.69 207.321 155.801 207.362 157.912C207.403 160.022 208.428 163.041 208.288 164.46" stroke="#263238" stroke-linecap="round" stroke-linejoin="round"/>
<path d="M213.492 188.748C213.492 188.748 212.982 193.129 214.511 195.002" stroke="#263238" stroke-linecap="round" stroke-linejoin="round"/>
<path d="M182.768 197.417C182.768 197.417 179.357 200.151 180.605 203.516" stroke="#263238" stroke-linecap="round" stroke-linejoin="round"/>
<path d="M205.182 163.319C205.235 165.249 203.952 167.499 203.817 170.167" stroke="#263238" stroke-linecap="round" stroke-linejoin="round"/>
<path d="M194.318 161.596C195.044 163.175 193.462 166.611 193.222 167.901C193.126 168.91 193.251 169.927 193.591 170.894" stroke="#263238" stroke-linecap="round" stroke-linejoin="round"/>
<path d="M214.739 167.034C214.446 168.711 213.099 169.909 212.841 175.069" stroke="#263238" stroke-linecap="round" stroke-linejoin="round"/>
<path d="M181.467 161.106C182.451 162.05 181.789 166.56 182.053 167.298" stroke="#263238" stroke-linecap="round" stroke-linejoin="round"/>
<path d="M199.826 135.125C199.826 135.125 203.178 132.963 206.061 135.512" stroke="#263238" stroke-linecap="round" stroke-linejoin="round"/>
<path d="M188.282 130.156C188.282 130.156 188.868 129.294 191.698 129.506C194.528 129.717 195.032 131.121 195.032 131.121" stroke="#263238" stroke-linecap="round" stroke-linejoin="round"/>
<path d="M180.013 144.888C180.013 144.888 179.064 143.654 176.562 144.062C174.06 144.47 172.946 147.586 172.946 147.586" fill="white"/>
<path d="M180.013 144.888C180.013 144.888 179.064 143.654 176.562 144.062C174.06 144.47 172.946 147.586 172.946 147.586" stroke="#263238" stroke-linecap="round" stroke-linejoin="round"/>
<path d="M214.013 155.729C214.013 155.729 211.927 153.066 209.419 154.207" stroke="#263238" stroke-linecap="round" stroke-linejoin="round"/>
<path opacity="0.2" d="M125.141 136.224C128.657 138.623 125.691 153.35 125.691 153.35L126.002 158.144L132.032 155.832L134.78 166.075C134.78 166.075 134.71 169.826 136.943 171.235C136.943 171.235 137.493 179.651 136.943 185.801C136.392 191.952 125.223 199.181 121.373 205.636C117.523 212.091 92.4124 231.065 92.4124 231.065L71.1523 222.159L86.5231 167.494L100.294 151.905L108.457 133.974C108.457 133.974 109.858 145.687 109.043 153.582L125.141 136.224Z" fill="black" fill-opacity="0.7"/>
<path d="M131.059 168.938C130.526 171.198 131.809 183.588 131.586 185.259C131.364 186.931 120.171 198.159 119.608 199.011C119.046 199.862 111.563 203.655 109.822 205.466C101.689 213.82 97.2467 221.514 93.678 229.228C92.9924 230.714 92.3359 232.205 91.6913 233.702L59.4146 217.19C62.1277 214.228 64.6886 211.596 67.0326 209.202C71.7206 204.346 75.4534 200.461 77.2817 196.792C77.8428 195.855 78.4853 194.958 79.2037 194.109C79.9303 193.201 80.5809 192.453 80.5809 192.453C80.5809 192.453 78.2368 186.637 78.7818 184.811C79.3267 182.984 78.108 167.968 78.108 167.968C78.108 167.968 76.5198 157.746 74.9552 155.166C74.5709 154.493 74.3971 153.741 74.4513 152.989C74.5275 150.631 76.0804 147.659 76.8422 144.217C77.8618 139.573 77.3695 137.277 80.5691 138.881C83.7686 140.486 82.2743 150.233 82.2743 150.233L87.1089 159.666C88.3805 157.385 87.1089 150.729 87.0445 149.155C87.0445 148.897 87.0444 148.469 86.9975 147.911C86.8979 145.197 86.6928 139.547 86.9565 137.318C86.9565 137.194 86.9566 137.081 87.0034 136.977C87.3961 134.676 88.7966 127.354 89.6873 126.539C91.0117 125.331 93.1154 124.315 95.0961 127.055C96.2036 128.603 95.7289 140.878 95.7289 140.878C95.7289 140.878 100.323 135.997 101.718 134.805C103.113 133.613 107.344 131.436 108.474 133.959C109.605 136.482 105.433 144.279 105.433 144.279C106.306 146.085 106.412 151.085 106.412 151.085C106.412 151.085 108.387 157.334 109.6 157.277H109.652C110.004 157.21 110.391 156.075 110.795 154.48C111.791 150.574 112.875 143.892 113.725 143.309L114.311 142.896C114.338 142.866 114.369 142.84 114.405 142.818L114.622 142.648C116.696 141.023 121.068 137.411 121.068 137.411C121.068 137.411 121.378 135.682 125.205 136.214C129.031 136.745 123.505 146.688 123.505 146.688C122.738 149.852 121.56 157.989 121.56 157.989C121.202 161.374 121.413 170.471 121.413 170.471C121.413 170.471 123.224 165.177 123.107 163.247C122.99 161.317 126.705 156.591 127.795 155.373C128.885 154.155 133.749 154.583 132.395 156.921C131.041 159.258 131.592 166.668 131.059 168.938Z" fill="white"/>
<path opacity="0.4" d="M77.2643 196.813C77.8254 195.876 78.468 194.979 79.1864 194.13C79.1864 194.13 77.2819 198.774 77.0943 201.245C76.9713 202.876 72.0958 205.698 67.0151 209.223C71.7324 204.367 75.436 200.481 77.2643 196.813Z" fill="white"/>
<path opacity="0.4" d="M79.186 194.13C79.9126 193.221 80.5631 192.473 80.5631 192.473C80.5631 192.473 78.2191 186.658 78.7641 184.831C79.3091 183.005 78.0902 167.989 78.0902 167.989C78.0902 167.989 76.5021 157.767 74.9375 155.187L78.5824 160.796C78.5824 160.796 78.225 165.228 79.2622 167.659C80.2994 170.089 81.6062 177.504 81.6062 177.504C81.6062 177.504 80.0709 183.737 80.5924 185.982C81.1139 188.226 83.4638 187.411 83.4638 187.411C83.4638 187.411 84.6182 191.519 79.186 194.13Z" fill="white"/>
<path opacity="0.4" d="M87.6889 151.905C90.2029 164.867 85.8723 161.281 84.3077 158.484C82.7431 155.687 79.0689 150.393 76.3029 151.523C75.5262 151.844 74.8755 152.362 74.4336 153.009C74.5098 150.651 76.0627 147.679 76.8245 144.237C77.8441 139.593 77.3519 137.297 80.5514 138.902C83.751 140.507 82.2567 150.254 82.2567 150.254L87.0912 159.686C88.3628 157.406 87.0912 150.749 87.0267 149.176C87.0267 148.918 87.0267 148.489 86.9799 147.932C87.1732 149.124 87.4076 150.45 87.6889 151.905Z" fill="white"/>
<path opacity="0.4" d="M93.842 139.098C93.842 139.098 91.1289 135.971 88.7731 136.131C88.3686 136.15 87.9794 136.273 87.6534 136.485C87.3275 136.697 87.0791 136.988 86.939 137.323C86.939 137.199 86.939 137.086 86.9858 136.982C87.3785 134.681 88.779 127.359 89.6697 126.544C90.9941 125.336 93.0978 124.32 95.0785 127.06C96.186 128.608 95.7114 140.883 95.7114 140.883C95.7114 140.883 100.306 136.002 101.7 134.81C103.095 133.618 107.326 131.441 108.457 133.964C109.588 136.487 105.416 144.284 105.416 144.284C106.289 146.09 106.394 151.09 106.394 151.09C106.394 151.09 108.369 157.339 109.582 157.282C106.91 161.709 105.128 151.921 105.128 151.921C105.527 149.898 104.109 145.512 104.249 144.356C104.39 143.2 101.788 139.114 97.4049 140.228C93.0216 141.343 96.186 156.596 96.186 156.596C95.3199 157.811 94.816 159.199 94.721 160.631C93.3674 159.16 94.721 154.955 94.721 154.955C93.5197 150.93 93.842 139.098 93.842 139.098Z" fill="white"/>
<path opacity="0.4" d="M114.27 142.88C112.401 144.609 112.658 148.979 110.754 154.465C111.75 150.558 112.834 143.876 113.684 143.293L114.27 142.88Z" fill="white"/>
<path opacity="0.4" d="M131.059 168.938C130.525 171.198 131.809 183.588 131.586 185.259C131.363 186.931 120.171 198.159 119.608 199.011C119.046 199.862 111.562 203.655 109.822 205.466C101.688 213.82 97.2465 221.514 93.6777 229.228C95.022 225.229 96.6444 221.307 98.5357 217.484C102.386 209.862 103.956 208.505 106.265 206.328C108.574 204.15 108.322 199.522 108.322 199.522C110.026 199.16 111.773 198.978 113.526 198.98C116.456 198.98 125.128 188.092 128.111 186.183C131.094 184.274 131.627 184.274 128.111 180.063C124.595 175.853 125.591 180.739 124.536 180.579C123.482 180.419 122.907 182.452 122.907 182.452C122.538 178.159 119.391 173.164 118.729 171.916C118.067 170.667 120.335 163.345 119.866 161.307C119.397 159.269 121.882 146.859 121.882 146.859C121.882 146.859 121.571 142.096 116.672 142.081C115.921 142.044 115.178 142.241 114.574 142.638C116.649 141.012 121.02 137.4 121.02 137.4C121.02 137.4 121.331 135.672 125.158 136.203C128.984 136.735 123.458 146.678 123.458 146.678C122.691 149.841 121.513 157.979 121.513 157.979C121.155 161.363 121.366 170.461 121.366 170.461C121.366 170.461 123.177 165.166 123.06 163.237C122.943 161.307 126.658 156.58 127.748 155.362C128.838 154.145 133.702 154.573 132.348 156.91C130.994 159.248 131.592 166.668 131.059 168.938Z" fill="white"/>
<path d="M91.6856 233.748C95.6645 224.496 100.112 215.466 109.822 205.492C111.58 203.706 119.04 199.914 119.608 199.037C120.177 198.159 131.369 186.952 131.586 185.285C131.803 183.619 130.526 171.224 131.059 168.964C131.592 166.704 130.971 159.253 132.319 156.931C133.667 154.609 128.803 154.186 127.719 155.383C126.635 156.58 122.931 161.348 123.031 163.257C123.13 165.166 121.337 170.481 121.337 170.481C121.337 170.481 121.126 161.384 121.484 157.999C121.484 157.999 122.656 149.862 123.429 146.699C123.429 146.699 128.949 136.75 125.129 136.224C121.308 135.698 120.991 137.421 120.991 137.421C120.991 137.421 114.891 142.468 113.684 143.293C112.477 144.119 110.83 157.019 109.617 157.261C108.404 157.504 106.377 151.069 106.377 151.069C106.377 151.069 106.271 146.069 105.398 144.263C105.398 144.263 109.564 136.487 108.439 133.943C107.314 131.399 103.083 133.603 101.683 134.79C100.282 135.976 95.6938 140.863 95.6938 140.863C95.6938 140.863 96.1685 128.577 95.0609 127.039C93.0802 124.289 90.9589 125.305 89.6521 126.523C88.7614 127.338 87.3609 134.66 86.9683 136.962C86.5756 139.263 86.9683 147.56 87.0093 149.139C87.0503 150.718 88.3454 157.37 87.0737 159.65L82.2392 150.218C82.2392 150.218 83.7394 140.46 80.534 138.866C77.3286 137.271 77.8267 139.573 76.807 144.201C75.7874 148.83 73.3613 152.592 74.9201 155.177C76.4789 157.762 78.0728 167.979 78.0728 167.979C78.0728 167.979 79.2799 182.994 78.7467 184.821C78.2134 186.647 80.5633 192.468 80.5633 192.468C80.5633 192.468 77.856 195.61 77.2641 196.808C74.5334 202.272 67.6244 208.247 59.4087 217.236" stroke="#263238" stroke-linecap="round" stroke-linejoin="round"/>
<path d="M95.7113 140.894C95.0308 141.78 94.6862 142.833 94.7269 143.902C94.7269 145.863 96.186 156.596 96.186 156.596C96.186 156.596 95.1253 157.7 95.0726 158.66" stroke="#263238" stroke-linecap="round" stroke-linejoin="round"/>
<path d="M121.349 170.455C121.509 172.268 122.039 174.041 122.914 175.688C124.285 178.072 123.84 179.387 123.371 180.796C123.057 182.031 122.89 183.292 122.873 184.558" stroke="#263238" stroke-linecap="round" stroke-linejoin="round"/>
<path d="M87.607 157.55C87.607 157.55 88.6267 160.399 86.7339 161.751" stroke="#263238" stroke-linecap="round" stroke-linejoin="round"/>
<path d="M109.635 157.261C109.635 157.261 109.834 158.381 108.035 158.484" stroke="#263238" stroke-linecap="round" stroke-linejoin="round"/>
<path d="M121.718 144.361C121.718 144.361 117.206 140.027 113.702 143.293" stroke="#263238" stroke-linecap="round" stroke-linejoin="round"/>
<path d="M103.435 141.926C103.435 141.926 101.355 139.609 99.5498 139.748C97.7449 139.888 95.3072 140.858 95.0317 142.132" stroke="#263238" stroke-linecap="round" stroke-linejoin="round"/>
<path d="M123.757 179.403C124.485 180.32 125.015 181.346 125.322 182.432" stroke="#263238" stroke-linecap="round" stroke-linejoin="round"/>
<path d="M112.037 161.787C110.637 164.083 111.305 167.979 110.789 169.047" stroke="#263238" stroke-linecap="round" stroke-linejoin="round"/>
<path d="M97.2 157.973C97.5282 159.294 96.491 161.446 96.3327 163.03C96.1745 164.614 97.6454 167.06 97.3758 169.284" stroke="#263238" stroke-linecap="round" stroke-linejoin="round"/>
<path d="M87.6893 163.381C87.6893 163.381 86.4645 165.868 86.5173 167.509C86.57 169.15 87.2322 172.747 87.2322 172.747" stroke="#263238" stroke-linecap="round" stroke-linejoin="round"/>
<path d="M78.6821 163.262C78.6821 163.262 78.2367 165.842 79.2681 167.659C80.2994 169.475 81.3015 173.335 81.3015 173.335" stroke="#263238" stroke-linecap="round" stroke-linejoin="round"/>
<path d="M80.5635 192.468C81.1036 192.336 81.5864 192.065 81.949 191.688C82.3116 191.312 82.5373 190.848 82.5969 190.358" stroke="#263238" stroke-linecap="round" stroke-linejoin="round"/>
<path d="M110.022 200.332C110.022 200.332 111.141 203.98 108.996 206.328" stroke="#263238" stroke-linecap="round" stroke-linejoin="round"/>
<path d="M74.4629 152.576C74.4629 152.576 77.6156 149.867 80.0006 152.153" stroke="#263238" stroke-linecap="round" stroke-linejoin="round"/>
<path d="M86.9858 136.982C86.9858 136.982 89.3298 134.82 92.0723 137.132" stroke="#263238" stroke-linecap="round" stroke-linejoin="round"/>
</svg>
